<?xml version="1.0" encoding="UTF-8"?>
<svg id="_레이어_3" data-name="레이어 3" xmlns="http://www.w3.org/2000/svg" viewBox="0 0 703.09 1029.04">
  <defs>
    <style>
      .cls-1 {
        fill: none;
        stroke: #231815;
        stroke-linecap: round;
        stroke-linejoin: round;
        stroke-width: 15px;
      }
    </style>
  </defs>
  <path class="cls-1" d="M419.63,958.78c16.42-4.12,47.01-12.1,76.95-35.56,17.67-13.83,46.85-36.69,54.47-74.67,6.17-30.73-3.46-63.17-5.01-68.57-6.14-21.43-12.1-28.58-23.36-51.81-8.22-16.96-18.37-42.72-24-78.1H204.65c-5.63,35.37-15.78,61.13-24,78.1-11.25,23.23-17.21,30.38-23.36,51.81-3.48,12.13-11.17,38.96-5.01,68.57,8.88,42.69,42.08,68.18,55.79,78.48,25.97,19.5,52.15,26.56,68.57,30.98,21.17,5.71,39.04,7.24,47.97,7.97,6.7.55,25.23,1.83,49.39-.14,8.9-.72,26.17-2.2,45.63-7.07Z"/>
</svg>