<?xml version="1.0" encoding="UTF-8"?>
<svg xmlns="http://www.w3.org/2000/svg" version="1.1" viewBox="0 0 1080 1080">
  <!-- Generator: Adobe Illustrator 30.2.1, SVG Export Plug-In . SVG Version: 2.1.1 Build 1)  -->
  <defs>
    <style>
      .st0, .st1, .st2, .st3, .st4, .st5 {
        stroke-linecap: round;
        stroke-linejoin: round;
        stroke-width: 15px;
      }

      .st0, .st2 {
        stroke: #040000;
      }

      .st0, .st3, .st5 {
        fill: none;
      }

      .st6 {
        fill: #040000;
        opacity: .21;
      }

      .st7, .st1, .st2, .st4 {
        fill: #fff;
      }

      .st1, .st3, .st4, .st5 {
        stroke: #231815;
      }

      .st8, .st9 {
        fill: #231815;
      }

      .st8, .st4, .st10, .st5 {
        display: none;
      }

      .st11 {
        opacity: .43;
      }
    </style>
  </defs>
  <g id="_레이어_12" data-name="레이어_12" class="st10">
    <rect class="st6" x="-175.19" y="-85.29" width="1324.19" height="1260.19"/>
  </g>
  <g id="_고양이" data-name="고양이" class="st10">
    <g class="st10">
      <g class="st11">
        <g>
          <path class="st2" d="M601.75,208.69c23.48-26.16,79.08-80.58,149.77-82,15.42-.31,22.36,2.08,25.63,3.42,65.97,26.9,45.95,196.25,44.62,206.72-73.34-42.71-146.68-85.42-220.02-128.13Z"/>
          <path class="st2" d="M671.42,222.24c6.31-6.73,49.15-51.55,76.45-38.69,2.68,1.26,4.38,2.69,5.56,3.69,24.54,20.9,12.52,78.79,9.49,92.26-30.5-19.08-61-38.17-91.5-57.25Z"/>
        </g>
        <g>
          <path class="st2" d="M478.25,208.69c-23.48-26.16-79.08-80.58-149.77-82-15.42-.31-22.36,2.08-25.63,3.42-65.97,26.9-45.95,196.25-44.62,206.72,73.34-42.71,146.68-85.42,220.02-128.13Z"/>
          <path class="st2" d="M408.58,222.24c-6.31-6.73-49.15-51.55-76.45-38.69-2.68,1.26-4.38,2.69-5.56,3.69-24.54,20.9-12.52,78.79-9.49,92.26,30.5-19.08,61-38.17,91.5-57.25Z"/>
        </g>
      </g>
      <path class="st2" d="M693.54,696.02c66.5,7.74,116.41,33.03,131.56,61.56,12.12,22.84,9.66,43.03,9.66,43.03-.64,5.27-2.19,16.71-10.53,26.75-10.89,13.11-26.74,15.84-35.14,17.29-48.62,8.38-120.44-47.46-125.16-51.18,9.87-32.48,19.74-64.96,29.61-97.45Z"/>
      <path class="st2" d="M386.46,696.02c-66.5,7.74-116.41,33.03-131.56,61.56-12.12,22.84-9.66,43.03-9.66,43.03.64,5.27,2.19,16.71,10.53,26.75,10.89,13.11,26.74,15.84,35.14,17.29,48.62,8.38,120.44-47.46,125.16-51.18-9.87-32.48-19.74-64.96-29.61-97.45Z"/>
      <path class="st2" d="M566.74,913.82c11.61-12.18,32.9-31.34,64.92-44.81,37.52-15.78,70.97-15.83,88.46-14.62,5.89,17.47,12.55,45.5,8.73,79.35-4.52,40.07-21.2,65.8-25.78,72.52-11.24,16.48-20.88,22.88-27.36,26.22-3.16,1.63-14.07,6.91-29.24,7.29-4.99.12-20.16.31-34.74-8.46-7.94-4.78-16.76-12.88-26.77-34.74-7.2-15.73-17.31-43.6-18.22-82.75Z"/>
      <path class="st2" d="M513.26,913.82c-11.61-12.18-32.9-31.34-64.92-44.81-37.52-15.78-70.97-15.83-88.46-14.62-5.89,17.47-12.55,45.5-8.73,79.35,4.52,40.07,21.2,65.8,25.78,72.52,11.24,16.48,20.88,22.88,27.36,26.22,3.16,1.63,14.07,6.91,29.24,7.29,4.99.12,20.16.31,34.74-8.46,7.94-4.78,16.76-12.88,26.77-34.74,7.2-15.73,17.31-43.6,18.22-82.75Z"/>
      <path class="st0" d="M397.03,675.95c-9.69,10.96-67.32,78.26-52.94,166.86,2.12,13.04,8.17,47.8,33.6,78.59,71.13,86.13,248.26,86.01,320.62.57,25.41-30,32.59-63.81,35.31-77.45,17.36-87.23-33.6-155.97-43.28-168.57h-293.3Z"/>
      <path class="st9" d="M450.57,482.34c0,22.02-6.58,39.86-21.58,39.86s-21.58-17.85-21.58-39.86,5.44-39.86,21.58-39.86c15.25,0,21.58,17.85,21.58,39.86Z"/>
      <path class="st9" d="M677.16,482.34c0,22.02-6.58,39.86-21.58,39.86s-21.58-17.85-21.58-39.86,5.44-39.86,21.58-39.86c15.25,0,21.58,17.85,21.58,39.86Z"/>
      <path class="st0" d="M556.13,511.57c-3.38-7.85-28.85-7.69-32.27.57-2.34,5.66,4.38,18.29,15.38,18.79,11.95.55,19.36-13.65,16.89-19.36Z"/>
      <g>
        <path class="st0" d="M494.43,545.99c1.65,2.61,6.3,9.16,14.93,12.09,8.42,2.86,20.14,2.12,26.89-5.32,4.43-4.87,5.4-11.17,5.62-12.73.54-3.83.1-7.04-.35-9.1"/>
        <path class="st0" d="M589.98,546.45c-1.65,2.61-6.3,9.16-14.93,12.09-8.42,2.86-20.14,2.12-26.89-5.32-4.43-4.87-5.4-11.17-5.62-12.73-.54-3.83-.1-7.04.35-9.1"/>
      </g>
    </g>
    <g class="st10">
      <path class="st2" d="M319.84,255.69c-19.84,16.15-105.07,89.72-113.9,207.46-7.24,96.6,40.64,167.98,50.96,180.36,23.84,28.57,53.56,46.99,53.56,46.99,18.73,11.61,35.57,18,46.39,22.04,18.14,6.78,32.24,10.07,44.17,12.8,34.27,7.86,61.32,9.91,83.44,11.5,14.61,1.05,33.42,1.95,55.48,1.83,22.06.12,40.87-.78,55.48-1.83,22.12-1.59,49.17-3.64,83.44-11.5,11.92-2.73,26.02-6.02,44.17-12.8,10.82-4.04,27.66-10.43,46.39-22.04,0,0,29.73-18.42,53.56-46.99,62.6-75.02,50.96-180.36,50.96-180.36-8.83-117.74-94.06-191.31-113.9-207.46-122.2-99.46-318.01-99.46-440.21,0Z"/>
    </g>
    <path class="st4" d="M474.2,209c-11-15.41-32.99-41.76-69.51-60.51-16.2-8.32-59.58-30.51-110.4-17.75-14.65,3.68-56.09,14.08-68.71,48.74-8.75,24.05.83,47.51,2.27,50.9,7.79,18.32,22.08,29.52,29.33,35.2,8.59,6.73,11.1,6.59,18.49,12.38,13.43,10.53,21.74,23.97,27.11,36.62,57.14-35.19,114.28-70.38,171.42-105.57Z"/>
    <g class="st10">
      <path class="st4" d="M448.67,199.86c-7.02-9.44-29.76-37.43-69.71-46.86-52.28-12.34-93.39,16.61-105.66,25.42-16.94,12.17-34.4,24.43-37.77,44.86-5.71,34.59,31.6,75.02,70.86,82.29,45.51,8.43,83.4-29.6,103.43-49.71,20.5-20.57,32.29-41.84,38.86-56Z"/>
      <path class="st1" d="M421.24,173c-8.47-6.33-22.78-15.36-42.29-20-52.79-12.57-95.82,18.35-105.66,25.42-17.73,12.74-34.54,24.82-37.77,44.86-5.8,35.98,35.1,79.46,71.62,79.24,38.01-.23,80.63-47.85,76.82-115.81"/>
    </g>
    <g class="st10">
      <path class="st3" d="M466.89,199.86c-7.02-9.44-29.76-37.43-69.71-46.86-52.28-12.34-93.39,16.61-105.66,25.42-16.94,12.17-34.4,24.43-37.77,44.86-5.71,34.59,31.6,75.02,70.86,82.29,45.51,8.43,83.4-29.6,103.43-49.71,20.5-20.57,32.29-41.84,38.86-56Z"/>
      <path class="st3" d="M439.46,173c-8.47-6.33-22.78-15.36-42.29-20-52.79-12.57-95.82,18.35-105.66,25.42-17.73,12.74-34.54,24.82-37.77,44.86-5.8,35.98,35.1,79.46,71.62,79.24,38.01-.23,80.63-47.85,76.82-115.81"/>
    </g>
    <g class="st10">
      <ellipse class="st9" cx="360.2" cy="579.4" rx="70.48" ry="48.46"/>
      <ellipse class="st8" cx="719.8" cy="579.4" rx="70.48" ry="48.46"/>
    </g>
    <g class="st10">
      <path class="st9" d="M425.51,548.96c-5.82-10.64-18.71-21.12-35.07-20.71-18.52.46-29.36,14.67-30.71,16.5-1.36-1.86-11.97-15.91-30.15-16.5-16.46-.54-29.32,10.2-35.07,20.71-11.28,20.62.46,43.05,3.52,48.76,5.34,9.96,12.13,15.84,17.59,20.48,13.73,11.65,28.45,17.44,39.89,20.42,3.01.78,6.16.71,9.15-.13,10.6-2.98,24.5-8.55,37.99-19.38,6.53-5.24,13.75-11.16,19.33-21.39,2.89-5.3,14.94-27.89,3.52-48.76Z"/>
      <path class="st8" d="M785.46,548.96c-5.82-10.64-18.71-21.12-35.07-20.71-18.52.46-29.36,14.67-30.71,16.5-1.36-1.86-11.97-15.91-30.15-16.5-16.46-.54-29.32,10.2-35.07,20.71-11.28,20.62.46,43.05,3.52,48.76,5.34,9.96,12.13,15.84,17.59,20.48,13.73,11.65,28.45,17.44,39.89,20.42,3.01.78,6.16.71,9.15-.13,10.6-2.98,24.5-8.55,37.99-19.38,6.53-5.24,13.75-11.16,19.33-21.39,2.89-5.3,14.94-27.89,3.52-48.76Z"/>
    </g>
    <ellipse class="st8" cx="539.5" cy="853.93" rx="108.72" ry="86.86"/>
    <path class="st9" d="M540,758c-60.47-.07-99.86,68.35-92.09,117.8,3.59,22.85,16.72,38.32,23.68,45.2,34.2,33.8,97.81,36.9,133.9,4.15,22.29-20.24,26.15-46.91,26.67-51,6.42-49.73-32.65-116.07-92.16-116.14Z"/>
  </g>
  <g id="_레이어_7" data-name="레이어_7" class="st10">
    <g id="_정면" data-name="정면" class="st10">
      <path class="st7" d="M322.3,679.86h435.41c20.66,22.87,28.91,45.35,32.43,57.71,3.88,13.64,17.4,61.21-9.71,96.57-9.43,12.29-20.77,19.2-28,22.86-10.43,28.13-37.07,86.19-94.86,112-26.86,12-53.61,13.98-85.71,16.36-42.79,3.17-78.55-.4-103.43-4.36-56.19-50.29-112.38-100.57-168.57-150.86,7.48-50.1,14.96-100.19,22.44-150.29Z"/>
      <path class="st2" d="M322.3,683.6c-10.66,4.84-28.05,14.29-43.98,31.76-3.11,3.41-50.86,57.1-30.54,98.96,1.05,2.17,12.57,24.95,37.26,30.24,11.89,2.54,22.04,0,27.49-1.83"/>
      <path class="st2" d="M338.79,785c-7.43,15.21-14.98,35.4-18.33,59.86-9.38,68.57,20.85,122.46,32.99,141.72,7.84,10.97,15.25,18.99,20.77,24.43,5.49,5.4,9.35,8.49,11,9.77,3.34,2.6,9.99,7.79,17.1,11,8.35,3.76,15.86,3.78,30.54,3.67,18.88-.15,28.33-.22,36.65-6.11,3.66-2.59,6.92-7.02,13.44-15.88,6.6-8.97,11.48-16.7,14.66-21.99"/>
      <path class="st2" d="M757.7,683.6c10.66,4.84,28.05,14.29,43.98,31.76,3.11,3.41,50.86,57.1,30.54,98.96-1.05,2.17-12.57,24.95-37.26,30.24-11.89,2.54-22.04,0-27.49-1.83"/>
      <path class="st2" d="M741.21,785c7.43,15.21,14.98,35.4,18.33,59.86,9.38,68.57-20.85,122.46-32.99,141.72-7.84,10.97-15.25,18.99-20.77,24.43-5.49,5.4-9.35,8.49-11,9.77-3.34,2.6-9.99,7.79-17.1,11-8.35,3.76-15.86,3.78-30.54,3.67-18.88-.15-28.33-.22-36.65-6.11-3.66-2.59-6.92-7.02-13.44-15.88-6.6-8.97-11.48-16.7-14.66-21.99"/>
      <path class="st2" d="M488.45,985.36c15.2,2.64,33.31,4.69,53.75,4.89,19.89.19,37.59-1.42,52.53-3.67"/>
    </g>
    <g id="_측면" data-name="측면" class="st10">
      <path class="st7" d="M331.29,671.86h429.9c10.37,30.34,19.72,73.28,14.1,123.43-2.56,22.83-6.11,54.5-26.29,87.43-26.09,42.59-64.35,61.73-90.29,74.29-29.79,14.42-109.53,53.04-197.71,23.43-126.26-42.4-156.57-186.64-157.71-192.57,9.33-38.67,18.67-77.33,28-116Z"/>
      <path class="st2" d="M328.57,675.64c-25.96,15.77-41.16,34.22-49.31,45.97-9.85,14.2-37.76,53.92-24.24,90.27,1.91,5.14,8.36,22.13,25.91,29.25,17.65,7.16,34.4-.58,37.76-2.22"/>
      <path class="st2" d="M341.38,778.71c-11.53,21.47-16.62,40.58-19.08,53.64-8.05,42.74,1.35,77.54,6.27,95.28,3.54,12.76,7.8,23.9,12.36,33.7,6.68,14.36,13.49,29.7,27.76,45.28,8.73,9.53,17.96,19.61,33.63,25.16,10.94,3.88,20.08,4,31.98,4.09,15.63.12,24.75.18,33.83-5.62,6.6-4.22,10.12-9.58,17.15-20.29,5.61-8.54,9.33-16.22,11.7-21.73"/>
      <path class="st2" d="M486.12,984.05c11.03,2.18,23.34,3.99,36.78,5.01,21.44,1.64,40.63.88,56.83-.84,2.92,6.46,7.64,15.45,15.04,25.07,5.83,7.57,8.88,11.87,14.21,15.04,1.15.69,4.37,2.51,12.15,4.55,5.22,1.37,14.96,3.84,28.06,3.44,6.13-.19,17.84-.65,30.86-6.19,15.42-6.57,24.22-16.67,32.95-26.69,2.73-3.13,13.46-15.72,23.81-37.51,2.2-4.64,10.47-22.49,16.95-53.14,3.9-18.44,7.81-44.6,7.34-76.7"/>
      <path class="st2" d="M727.25,808.53c4.22,6.08,16.1,21.47,37.61,28.84,8.68,2.97,27.4,9.42,45.13,0,16.51-8.77,22.04-25.91,23.38-30.08,9.34-28.96-7.46-56.82-17.56-73.56-17.68-29.31-41.79-46.37-58.12-55.58"/>
    </g>
    <g id="_옆면" data-name="옆면">
      <path class="st2" d="M710.98,683.6c8.05,16.12,18.23,40.08,24.76,70.46,5.91,27.53,14.31,66.7,1.9,108.54-18.29,61.66-71.31,93.82-88.86,103.46-17.85,19.26-33.18,34.91-44.86,46.55-9.79,9.76-14.31,14.02-22,17.77-5.71,2.79-13.19,5.31-49.09,5.08-36.85-.23-42.82-2.97-47.39-6.77-3.41-2.83-7.4-9.26-15.23-22-6.28-10.21-11.14-18.82-14.39-24.76-15.56-5.15-37.28-13.82-60.94-28.56-20.4-12.72-41.72-26.01-58.4-49.51-26.55-37.42-25.79-78.84-25.39-100.29,1.04-56.25,25.11-97.72,38.08-116.79"/>
      <path class="st2" d="M484.37,765.48c4.15,19.03,11.92,32.4,17.14,39.99,7.56,11,15.36,22.35,30.47,28.56,16.42,6.75,31.64,3.41,38.08,1.9,16.19-3.78,26.64-12.34,32.37-17.14,33.78-28.29,40.61-78.63,41.89-89.5"/>
    </g>
  </g>
  <g id="_레이어_6" data-name="레이어_6">
    <g id="_정면1" data-name="정면">
      <path class="st7" d="M337.57,689.57h404.69c8.66,7.6,23.67,23.13,28.83,46.48,2.7,12.2,4.23,33.45-16.05,71.86-19.91,37.71-35.44,43.85-102.94,110.23-46.23,45.47-63.35,66.58-97,70.1-16,1.67-28.15-1.43-40-4.57-61.89-16.41-100.88-65.52-140.95-117.33-14.77-19.1-34.92-47.21-55.6-83.81l19.03-92.95Z"/>
      <path class="st2" d="M337.57,689.57c-19.86,7.35-34.61,16.32-44.45,23.24-15.13,10.63-60.81,42.74-54.69,75.82.53,2.87,1.82,9.36,6.98,14.69,14.08,14.53,47.4,10.52,83.79-10.57"/>
      <path class="st2" d="M742.25,689.57c19.86,7.35,34.61,16.32,44.45,23.24,15.13,10.63,60.81,42.74,54.69,75.82-.53,2.87-1.82,9.36-6.98,14.69-14.08,14.53-47.4,10.52-83.79-10.57"/>
      <path class="st2" d="M741.15,779c7.01,11.17,16.39,29.51,20,53.81,1.53,10.31,5.38,38.74-8.14,70.76-2.39,5.67-9.72,21.84-24.62,37.62-34.52,36.54-81.63,41.22-96.19,42.09-.2,4.05-2.23,36.23-26.2,51.43-3.51,2.22-12.28,7.63-24.66,7.81-4.15.06-15.01.22-24.38-7.05-10.48-8.13-12.85-20.69-14.48-29.33-1.15-6.12-1.23-11.32-1.1-14.86"/>
      <path class="st2" d="M340.24,779c-7.01,11.17-16.39,29.51-20,53.81-1.53,10.31-5.38,38.74,8.14,70.76,2.39,5.67,9.72,21.84,24.62,37.62,34.52,36.54,81.63,41.22,96.19,42.09.2,4.05,2.23,36.23,26.2,51.43,3.51,2.22,12.28,7.63,24.66,7.81,4.15.06,15.01.22,24.38-7.05,10.48-8.13,12.85-20.69,14.48-29.33,1.15-6.12,1.23-11.32,1.1-14.86"/>
    </g>
    <g id="_측면1" data-name="측면" class="st10">
      <g>
        <path class="st0" d="M329.44,692.43c-22.5,9.23-37.66,21.35-46.73,29.87-9.96,9.37-47.36,44.59-39.24,78.72.81,3.4,4.16,17.44,16.76,24.94,11.68,6.95,25.33,4.74,29.33,4.09,6.02-.97,10.53-2.89,13.33-4.09,8.9-3.82,15.28-8.85,19.24-12.47"/>
        <path class="st0" d="M748.81,693.8c16.88,10.58,28.51,21.99,35.81,30.21,11.08,12.46,22.87,25.74,27.43,46.68,1.69,7.76,5.02,24.17-3.05,39.62-1.84,3.53-6.4,12.25-16.19,16.67-5.87,2.65-11.08,2.61-13.9,2.55-3.2-.06-13.06-.68-29.4-12.36-6.87-4.91-10.34-8.54-19.56-17.52-6.13-5.98-15.4-14.92-27.15-25.84"/>
        <path class="st0" d="M340.37,777.19c-6.86,10.26-18.75,31.02-21.84,59.81-.84,7.83-4.22,45.89,18.48,82.86,35.51,57.85,104.17,63.02,111.05,63.43.52,6.52,2.17,16.96,7.87,28.32,2.7,5.36,5.91,11.77,12.7,17.78,2.01,1.78,15.69,13.51,35.24,12,3.73-.29,11.29-.89,18.67-5.71,17.59-11.5,17.21-35.93,17.14-38.29"/>
        <path class="st0" d="M498.33,985.95c7.93,1.37,16.25,2.6,24.95,3.62,6,.7,11.85,1.27,17.52,1.71-.38,3.57-.58,8.68.38,14.67,1.02,6.39,3.54,22.14,16.83,31.05,9.41,6.31,19.43,5.97,23.62,5.84,12-.38,20.35-5.52,23.56-7.56,10.9-6.91,15.97-16.18,18.6-21.14,6.5-12.25,7.35-23.84,7.3-30.29,7.68-.62,18.27-2,30.48-5.33,5.01-1.37,39.85-11.22,63.81-33.46,42.99-39.92,36.71-106.56,35.81-114.79"/>
      </g>
    </g>
    <g id="_옆면1" data-name="옆면" class="st10">
      <path class="st0" d="M487.36,759.16c2.23,5.25,22,50.61,49.51,62.79,5.16,2.28,14.5,6.42,24.76,3.24,7.61-2.36,12.14-7.62,13.9-9.71,10.79-12.84,9.33-30.42,7.62-48.19-1.13-11.76-4.08-29.1-12.44-49.14"/>
      <path class="st0" d="M386.14,709.57c-11.55,9.26-54.56,46.04-63.56,108.76-2.1,14.68-9.27,64.75,22.48,107.81,29.61,40.15,75.29,50.3,97.52,55.24,19.67,4.37,36.55,4.89,48.13,4.57-.39,8.48.02,27.74,12.7,44.44,2.81,3.69,7.54,9.73,16,13.97,1.42.71,19.69,9.51,37.34.51,7.95-4.06,12.24-9.93,15.49-14.48,11.79-16.51,12.74-34.89,12.44-44.44"/>
      <path class="st0" d="M697,710.71c11.29,9.43,52.38,46.05,60.65,107.62,1.93,14.36,8.83,65.75-24.4,109.33-29.6,38.82-73.77,48.79-95.6,53.71-21.67,4.89-40.29,5.18-52.97,4.57"/>
    </g>
  </g>
  <g id="_레이어_8" data-name="레이어_8" class="st10">
    <g class="st10">
      <path class="st3" d="M363.86,707.1c-12.13,6.68-62.3,35.62-78.7,81.75-3.17,8.92-8.87,25.63-3.43,44.63,1.75,6.13,5.35,18.69,17.52,26.41,9.67,6.13,19.71,6.02,24,5.71"/>
      <path class="st3" d="M709.79,824.09c2.98,3.23,7.54,8.43,12.57,15.37,4.14,5.71,5.32,8.07,8.63,12.19,2.2,2.73,7.87,9.78,15.87,14.86,3.1,1.96,17.1,10.86,35.05,7.11,3.44-.72,16.01-3.77,24.89-14.73,11.74-14.49,9.29-33.42,7.87-44.32-6.88-52.98-63.57-104.72-75.2-115.09"/>
      <path class="st3" d="M757.16,877.42c-.85,20.67-5.7,36.83-9.71,47.24-4.86,12.6-13.41,34.01-34.86,51.43-2.25,1.82-8.04,6.37-16.25,10.79-16.39,8.82-33.76,10.4-67.81,13.21-36.97,3.04-65.53,5.17-89.3-3.47-2.67-.97-6.21-2.42-10.16-5.08-19.33-13.05-22.46-37.9-22.75-40.44,0-.01,0-.07-.02-.15-.67-6.18-1.74-16.08,2.1-26.03,3.94-10.22,22.8-26.71,52.83-32.76"/>
      <path class="st3" d="M360.2,790.56c-3.29,3.46-7.63,8.48-12,15.05-1.52,2.28-7.26,11.1-13.52,28-3.48,9.4-7.53,22.39-10.29,38.48-3.5-.08-33.94-.31-50.1,22.86-2.08,2.99-7.26,11.14-8.38,22.48-2.49,25.24,16.91,48.02,35.62,59.43,1.16.71,2.02,1.21,2.46,1.44,6,3.02,17.27,5.16,61.15,6.56,15.87.51,31.74.94,47.62.76,23.95-.27,58.37-.58,105.14-.76"/>
    </g>
    <g class="st10">
      <path class="st3" d="M297.19,668.24c-6.42,3.74-30.46,18.78-40.38,49.52-10.66,33.01,2.53,60.69,6.1,68.19,22.68,47.76,76.51,57.98,82.67,59.05,4.01,17.14,16.44,59.68,55.43,95.43,7.45,6.83,36.98,32.77,84,44,7.54,1.8,42.54,9.67,86.86.76,18.57-3.73,33.57-9.37,44.19-14.1,7.8,1.06,19.38,2.44,33.52,3.43,28.76,2.01,35.66.11,38.48-.76,17.72-5.49,28.01-18.05,31.24-22.1,4.26-5.34,11.5-14.41,12.95-27.05,2.1-18.2-9.1-32.56-16.38-41.9-22.05-28.3-53.61-38.26-68.95-41.9"/>
      <path class="st3" d="M725.76,755.86c9.5,11.38,20.88,27.69,29.71,49.14,16.37,39.78,15.1,75.72,12.95,94.86,5.7,23.91,6.68,43.89,6.48,57.71-.45,30.55-6.77,39.87-9.33,43.24-8.13,10.65-19.3,14.9-28.19,18.29-6.39,2.43-21.91,8.03-40.95,4.76-12.9-2.22-21.43-7.89-38.48-19.24-9.45-6.29-21.75-15.35-35.05-27.81"/>
      <path class="st3" d="M784.05,664.94c3.06,3.83,7.04,9.51,10.41,17.02,1.61,3.59,10.98,25.19,5.33,50.79-8.3,37.59-42.49,54.38-46.73,56.38"/>
    </g>
    <g class="st10">
      <path class="st3" d="M375.67,706.33c-50.9,58.2-65.31,132.24-36.73,185.93,14.85,27.89,38.15,44.38,55.24,53.59"/>
      <path class="st3" d="M430.72,906.55c-6.83,4.56-16.15,12.15-23.84,24.1-15.72,24.43-23.2,64.92-4.3,87.42,12.36,14.71,32.41,17.52,53.54,20.43,7.76,1.07,15.95,2.13,26.58.41,14.73-2.38,23.21-8.35,39.47-17.57,0,0,20.77-11.77,42.6-21.65,17.5-7.92,19.1-6.79,61.36-22.06,33.71-12.18,40.43-15.69,44.55-17.97,1.36-.76,23.58-12.53,39.47-29.41,31.38-33.34,33.28-81.3,33.22-98.05"/>
      <path class="st3" d="M741.48,831.06c6.09-1.74,16.05-4.27,28.57-5.9,29.67-3.88,37.92,1.96,57.33-3.81,7.63-2.27,26.91-7.99,37.14-25.52,9.48-16.24,6.75-35,4-43.24-10.84-32.41-71.6-50.12-149.9-42.67"/>
      <path class="st3" d="M563.99,1002.96c9.94,7.34,27.52,18.27,51.59,22.88,16.29,3.12,36.92,7.07,55.11-3.68,21.71-12.83,32.87-42.43,31.27-74.76"/>
    </g>
    <g id="_레이어_9" data-name="레이어_9">
      <path class="st3" d="M374.37,721.6c-8.92-4.39-21.48-11.46-34.76-22.38-26.93-22.13-32.02-39.68-54.35-45.46-3.96-1.03-17.41-4.31-31.02,2.06-17.06,7.99-22.82,25.76-24.6,31.21-5.08,15.54-2.29,28.84,0,39.11,8.32,37.34,35.65,73.42,73.62,89.68,6.41,2.74,11.87,4.39,15.27,5.31"/>
      <path class="st3" d="M329.7,794.97c-3.2,11.57-13.52,54.36,9.24,97.3,10.49,19.79,24.37,32.74,34.19,40.35"/>
    </g>
  </g>
  <g id="_레이어_11" data-name="레이어_11" class="st10">
    <g class="st10">
      <path class="st3" d="M346.46,695.92c-5.8,3.61-15.59,10.14-26.41,19.81-6.36,5.69-64.56,58.79-50.79,99.3,1.02,3.01,4.56,12.85,14.22,18.54,13.58,8,29.39,1.96,32.38.76"/>
      <path class="st3" d="M345.19,772.62c-8.26,11.03-23.14,34.11-27.05,66.67-1.48,12.29-6.8,56.62,23.75,93.59,21,25.42,48.13,34.25,60.19,37.33"/>
      <path class="st3" d="M444.62,908.24c-2.23-.36-26.23-3.8-40,12.57-1.36,1.61-5.34,6.66-7.11,14.35-3.64,15.85,4.51,32.6,15.75,41.4,2.88,2.26,10.33,7.4,42.67,8.13,13.07.29,30.69-.13,51.56-3.05"/>
      <path class="st3" d="M549.89,905.19c-2.84-.3-33.7-3.1-49.02,17.52-1.93,2.6-5.84,8.58-7.11,17.02-2.47,16.47,6.45,33.5,19.56,41.4,6.8,4.1,14.11,4.65,28.44,5.59,15.25,1,27.84.02,36.32-1.02,6.73.09,16.47.07,28.19-.51,15.88-.78,38.68-1.9,58.41-6.86,13.5-3.39,44.22-11.1,65.65-35.81,30.65-35.32,23.33-83.51,21.71-92.95"/>
      <path class="st3" d="M699.22,800.99c7.94,8.02,13.99,15.2,18.29,20.64,8.06,10.2,9.54,13.75,15.49,17.52,1.83,1.16,12.59,7.73,26.16,4.92,2.75-.57,12.21-2.62,19.05-11,1.54-1.89,6.12-7.99,7.11-21.86,1.39-19.48-5.7-34.73-13.71-51.98-7.15-15.38-14.21-25.54-16.02-28.1-9.09-12.89-18.57-22.45-26.14-29.13"/>
    </g>
    <g class="st10">
      <path class="st3" d="M269,645c-3.78,4.74-8.85,12.26-12.19,22.48-6.91,21.15-1.68,39.46.76,48,13.03,45.62,63.43,68,70.1,70.86"/>
      <path class="st3" d="M331.86,763.48c-3.3,16.49-6.48,43.46.38,75.05,14.65,67.48,64.11,105.43,81.52,117.33,64.71,44.25,147.63,43.98,204.57,15.62,14.27-7.11,53-26.4,60.95-63.24,1.22-5.66,7.26-33.62-10.29-46.86-11.75-8.87-30.24-8.24-46.48,1.52"/>
      <path class="st3" d="M633.19,966.9c1.89,4.7,10.78,25.38,33.52,35.05,4.59,1.95,31.38,13.34,50.67-2.29,14.83-12.01,19.54-35.39,10.29-56.76,5.99-6.47,13.8-16.19,20.57-29.33,0,0,12.23-23.74,14.48-52.19,4.29-54.26-30.18-99.31-36.57-107.43"/>
      <path class="st3" d="M775.29,661.57c2.29,4.66,5.06,11.38,6.86,19.81.58,2.72,3.98,19.55-.76,39.05-7.43,30.57-30.16,48.23-36.95,53.14"/>
    </g>
    <g class="st10">
      <path class="st3" d="M385.19,710.9c-11.93,8.56-29.92,23.69-45.08,47.49-9.51,14.94-29.21,46.85-26.1,90.16,2.2,30.55,14.78,53.45,23.37,66.16,3.17,3.75,6.35,7.49,9.52,11.24"/>
      <path class="st3" d="M747.79,799.54c6.48.9,15.66,2.59,26.35,6.03,2.57.83,6.35,2.68,12.19,4.25,3.34.9,8.29,2.2,14.29,2.54,4.93.28,11.95.68,19.43-2.41,1.96-.81,14.5-6.2,18.92-19.05,1.29-3.75,2.85-10.92-1.33-23.11-8.98-26.17-32.81-41.49-41.59-46.98-29.15-18.23-58.8-21.17-75.81-21.33"/>
      <path class="st3" d="M347.63,927.66c-18.3,16.6-24.77,40.97-16.63,60.08,4.36,10.23,13.83,21.11,27.72,25.83,3.71,1.26,14.9,4.52,27.37.57,9.55-3.03,15.59-9.21,27.68-21.59,6.56-6.72,11.5-12.67,14.73-16.76,23.06,6.34,50.8,12.12,82.47,15.07,41.27,3.86,77.35,1.82,105.98-1.87,27.63,24.76,59.36,36.01,82.03,26.67,4.43-1.83,15.86-6.54,21.84-18.29,6.18-12.13,3.1-24.97,1.78-30.48-2.11-8.8-5.98-15.26-8.63-19.05,9.73-7.65,26.69-23.24,37.33-48.57,18.97-45.15,3.37-86.75-.44-96.19"/>
    </g>
    <g id="_레이어_10" data-name="레이어_10">
      <path class="st3" d="M383.54,725.13c-24.22-11.94-40.43-25.57-51.05-36.32-19.07-19.31-26.06-35.41-46.22-39.87-2.99-.66-18.15-4.02-30.41,4.57-9.03,6.32-12.11,16.03-13.46,20.57-10.1,34.04,15.74,77.45,41.14,103.11,12.71,12.84,25.23,21.17,33.78,26.16"/>
      <path class="st3" d="M322.84,791.67c-2.21,5.57-4.33,12.02-5.97,19.3-3.31,14.68-3.53,27.67-2.86,37.59"/>
    </g>
  </g>
  <g id="_토끼" data-name="토끼">
    <g class="st10">
      <circle class="st9" cx="651.17" cy="468.48" r="26"/>
      <circle class="st8" cx="431.14" cy="468.48" r="26"/>
      <g class="st10">
        <path class="st3" d="M475.74,272.22c1.91-15.94,14.22-129.51-40.52-195.42-7.37-8.87-22.97-27.66-50.49-39.7-11.23-4.91-39.56-16.8-74.17-7.76-8.32,2.17-34.58,10.18-54.45,35.02-20.76,25.95-22.14,54.81-22.91,70.8-4.42,92.13,88.54,181.69,100.83,193.27,47.24-18.74,94.48-37.47,141.71-56.21Z"/>
        <path class="st3" d="M423.55,265.19c.07-10.61-.32-26.86-2.92-46.48-6.25-47.18-17.99-71.93-22.47-80.46-6.54-12.43-12.43-19.77-19.75-25.83-5.31-4.4-15.86-13.13-31.81-14.56-3.4-.3-25.16-1.9-38.73,13.17-7.3,8.11-9.49,17.99-10.67,23.32-1.68,7.57-1.52,13.86-1.37,18.45.03.84.42,10.95,3.27,21.59,6.86,25.6,33.17,63.88,39.5,73.01,7.16,10.33,16.75,23.9,28.44,39.69,18.84-7.3,37.67-14.6,56.51-21.9Z"/>
      </g>
      <g class="st10">
        <path class="st3" d="M605,272.22c-1.91-15.94-14.22-129.51,40.52-195.42,7.37-8.87,22.97-27.66,50.49-39.7,11.23-4.91,39.56-16.8,74.17-7.76,8.32,2.17,34.58,10.18,54.45,35.02,20.76,25.95,22.14,54.81,22.91,70.8,4.42,92.13-88.54,181.69-100.83,193.27-47.24-18.74-94.48-37.47-141.71-56.21Z"/>
        <path class="st3" d="M657.19,265.19c-.07-10.61.32-26.86,2.92-46.48,6.25-47.18,17.99-71.93,22.47-80.46,6.54-12.43,12.43-19.77,19.75-25.83,5.31-4.4,15.86-13.13,31.81-14.56,3.4-.3,25.16-1.9,38.73,13.17,7.3,8.11,9.49,17.99,10.67,23.32,1.68,7.57,1.52,13.86,1.37,18.45-.03.84-.42,10.95-3.27,21.59-6.86,25.6-33.17,63.88-39.5,73.01-7.16,10.33-16.75,23.9-28.44,39.69-18.84-7.3-37.67-14.6-56.51-21.9Z"/>
      </g>
      <g class="st10">
        <path class="st3" d="M587.23,720.02c15.04-.62,38.93-1.96,68.19-5.24,18.41-2.06,42.79-4.41,63.21-9.18,39.26-9.18,99.08-23.16,136.18-73.44,8.77-11.88,30.38-42.16,29.21-85.52-1.27-46.78-28.24-78.04-36.32-86.75.65-28.42-2.4-84.46-36.89-140.21-43.44-70.23-109.82-96.62-141.12-108.9-9.92-3.89-58.82-22.51-126.33-23.11-71.08-.63-122.78,19.08-133.03,23.11-30.43,11.96-96.81,38.43-141.12,108.9-34.96,55.6-39.05,111.46-38.9,140.21-8.06,9.21-33.44,40.54-34.31,86.75-.82,43.75,20.81,74.14,29.21,85.52,37.09,50.28,96.91,64.26,136.18,73.44,18.43,4.31,33.36,5.9,63.21,9.18,42.84,4.7,77,5.38,99.42,5.77,15.44.27,35.89.6,63.23-.53Z"/>
      </g>
      <path class="st5" d="M608.1,977.32c16.42-4.12,47.01-12.1,76.95-35.56,17.67-13.83,46.85-36.69,54.47-74.67,6.17-30.73-3.46-63.17-5.01-68.57-6.14-21.43-12.1-28.58-23.36-51.81-8.22-16.96-18.37-42.72-24-78.1h-294.04c-5.63,35.37-15.78,61.13-24,78.1-11.25,23.23-17.21,30.38-23.36,51.81-3.48,12.13-11.17,38.96-5.01,68.57,8.88,42.69,42.08,68.18,55.79,78.48,25.97,19.5,52.15,26.56,68.57,30.98,21.17,5.71,39.04,7.24,47.97,7.97,6.7.55,25.23,1.83,49.39-.14,8.9-.72,26.17-2.2,45.63-7.07Z"/>
      <path class="st5" d="M382.44,896.43c1.55,17.18,4.06,36.03,8,56.19,3.64,18.64,7.98,35.76,12.57,51.24-.15,2.44-1.04,21.02,11.43,30.29,7.33,5.45,16.6,5.7,24.76,5.91,2.23.06,8.59.11,16.57-1.72,0,0,9.18-2.1,17.77-6.76,12.25-6.64,31.01-47.76,36.32-107.17-42.48-9.32-84.95-18.65-127.43-27.97Z"/>
      <path class="st5" d="M697.56,896.43c-1.55,17.18-4.06,36.03-8,56.19-3.64,18.64-7.98,35.76-12.57,51.24.15,2.44,1.04,21.02-11.43,30.29-7.33,5.45-16.6,5.7-24.76,5.91-2.23.06-8.59.11-16.57-1.72,0,0-9.18-2.1-17.77-6.76-12.25-6.64-31.01-47.76-36.32-107.17,42.48-9.32,84.95-18.65,127.43-27.97Z"/>
      <path class="st5" d="M421.3,781.57c-9.12-31.62-18.24-63.24-27.37-94.86-18.15,3.69-41.05,10.1-66.04,21.65-21.94,10.15-39.7,21.59-53.33,31.75-18.74,1.89-34.69,13.26-41.14,29.46-9.02,22.65,2.03,50.97,25.4,60.76,18.76,7.86,41.43,2.08,55.37-14.54,10.53-3.37,21.06-6.73,31.6-10.1,25.17-8.04,50.34-16.09,75.52-24.13Z"/>
      <path class="st5" d="M658.7,781.57c9.12-31.62,18.24-63.24,27.37-94.86,18.15,3.69,41.05,10.1,66.04,21.65,21.94,10.15,39.7,21.59,53.33,31.75,18.74,1.89,34.69,13.26,41.14,29.46,9.02,22.65-2.03,50.97-25.4,60.76-18.76,7.86-41.43,2.08-55.37-14.54-10.53-3.37-21.06-6.73-31.6-10.1-25.17-8.04-50.34-16.09-75.52-24.13Z"/>
      <ellipse class="st5" cx="540" cy="509.38" rx="12" ry="6.86"/>
      <g class="st10">
        <path class="st3" d="M469.65,545.74c4.18,4.12,12.31,10.87,24.38,13.89,3.77.94,22.44,5.61,37.54-5.33,4.04-2.93,6.75-6.19,8.43-8.56"/>
        <path class="st3" d="M610.35,545.74c-4.18,4.12-12.31,10.87-24.38,13.89-3.77.94-22.44,5.61-37.54-5.33-4.04-2.93-6.75-6.19-8.43-8.56"/>
      </g>
    </g>
  </g>
</svg>