<?xml version="1.0" encoding="UTF-8"?>
<svg id="_레이어_3" data-name="레이어 3" xmlns="http://www.w3.org/2000/svg" viewBox="0 0 703.09 1029.04">
  <defs>
    <style>
      .cls-1 {
        fill: none;
        stroke: #231815;
        stroke-linecap: round;
        stroke-linejoin: round;
        stroke-width: 15px;
      }
    </style>
  </defs>
  <path class="cls-1" d="M232.84,763.03c-9.12-31.62-18.24-63.24-27.37-94.86-18.15,3.69-41.05,10.1-66.04,21.65-21.94,10.15-39.7,21.59-53.33,31.75-18.74,1.89-34.69,13.26-41.14,29.46-9.02,22.65,2.03,50.97,25.4,60.76,18.76,7.86,41.43,2.08,55.37-14.54,10.53-3.37,21.06-6.73,31.6-10.1,25.17-8.04,50.34-16.09,75.52-24.13Z"/>
  <path class="cls-1" d="M470.24,763.03c9.12-31.62,18.24-63.24,27.37-94.86,18.15,3.69,41.05,10.1,66.04,21.65,21.94,10.15,39.7,21.59,53.33,31.75,18.74,1.89,34.69,13.26,41.14,29.46,9.02,22.65-2.03,50.97-25.4,60.76-18.76,7.86-41.43,2.08-55.37-14.54-10.53-3.37-21.06-6.73-31.6-10.1-25.17-8.04-50.34-16.09-75.52-24.13Z"/>
</svg>