<?xml version="1.0" encoding="UTF-8"?>
<svg id="_레이어_2" data-name="레이어 2" xmlns="http://www.w3.org/2000/svg" viewBox="0 0 703.09 1029.04">
  <defs>
    <style>
      .cls-1 {
        fill: none;
        stroke: #040000;
        stroke-linecap: round;
        stroke-linejoin: round;
        stroke-width: 15px;
      }
    </style>
  </defs>
  <path class="cls-1" d="M505.08,677.48c66.5,7.74,116.41,33.03,131.56,61.56,12.12,22.84,9.66,43.03,9.66,43.03-.64,5.27-2.19,16.71-10.53,26.75-10.89,13.11-26.74,15.84-35.14,17.29-48.62,8.38-120.44-47.46-125.16-51.18,9.87-32.48,19.74-64.96,29.61-97.45Z"/>
  <path class="cls-1" d="M197.99,677.48c-66.5,7.74-116.41,33.03-131.56,61.56-12.12,22.84-9.66,43.03-9.66,43.03.64,5.27,2.19,16.71,10.53,26.75,10.89,13.11,26.74,15.84,35.14,17.29,48.62,8.38,120.44-47.46,125.16-51.18-9.87-32.48-19.74-64.96-29.61-97.45Z"/>
</svg>