<?xml version="1.0" encoding="UTF-8"?>
<svg id="_레이어_3" data-name="레이어 3" xmlns="http://www.w3.org/2000/svg" viewBox="0 0 703.09 1029.04">
  <defs>
    <style>
      .cls-1 {
        fill: none;
        stroke: #231815;
        stroke-linecap: round;
        stroke-linejoin: round;
        stroke-width: 15px;
      }
    </style>
  </defs>
  <path class="cls-1" d="M193.98,877.89c1.55,17.18,4.06,36.03,8,56.19,3.64,18.64,7.98,35.76,12.57,51.24-.15,2.44-1.04,21.02,11.43,30.29,7.33,5.45,16.6,5.7,24.76,5.91,2.23.06,8.59.11,16.57-1.72,0,0,9.18-2.1,17.77-6.76,12.25-6.64,31.01-47.76,36.32-107.17-42.48-9.32-84.95-18.65-127.43-27.97Z"/>
  <path class="cls-1" d="M509.09,877.89c-1.55,17.18-4.06,36.03-8,56.19-3.64,18.64-7.98,35.76-12.57,51.24.15,2.44,1.04,21.02-11.43,30.29-7.33,5.45-16.6,5.7-24.76,5.91-2.23.06-8.59.11-16.57-1.72,0,0-9.18-2.1-17.77-6.76-12.25-6.64-31.01-47.76-36.32-107.17,42.48-9.32,84.95-18.65,127.43-27.97Z"/>
</svg>