<?xml version="1.0" encoding="UTF-8"?>
<svg id="_레이어_2" data-name="레이어 2" xmlns="http://www.w3.org/2000/svg" viewBox="0 0 703.09 1029.04">
  <defs>
    <style>
      .cls-1 {
        fill: none;
        stroke: #040000;
        stroke-linecap: round;
        stroke-linejoin: round;
        stroke-width: 15px;
      }
    </style>
  </defs>
  <path class="cls-1" d="M378.27,895.28c11.61-12.18,32.9-31.34,64.92-44.81,37.52-15.78,70.97-15.83,88.46-14.62,5.89,17.47,12.55,45.5,8.73,79.35-4.52,40.07-21.2,65.8-25.78,72.52-11.24,16.48-20.88,22.88-27.36,26.22-3.16,1.63-14.07,6.91-29.24,7.29-4.99.12-20.16.31-34.74-8.46-7.94-4.78-16.76-12.88-26.77-34.74-7.2-15.73-17.31-43.6-18.22-82.75Z"/>
  <path class="cls-1" d="M324.8,895.28c-11.61-12.18-32.9-31.34-64.92-44.81-37.52-15.78-70.97-15.83-88.46-14.62-5.89,17.47-12.55,45.5-8.73,79.35,4.52,40.07,21.2,65.8,25.78,72.52,11.24,16.48,20.88,22.88,27.36,26.22,3.16,1.63,14.07,6.91,29.24,7.29,4.99.12,20.16.31,34.74-8.46,7.94-4.78,16.76-12.88,26.77-34.74,7.2-15.73,17.31-43.6,18.22-82.75Z"/>
</svg>