<?xml version="1.0" encoding="UTF-8"?>
<svg id="_레이어_2" data-name="레이어 2" xmlns="http://www.w3.org/2000/svg" viewBox="0 0 703.09 1029.04">
  <defs>
    <style>
      .cls-1 {
        fill: none;
        stroke: #040000;
        stroke-linecap: round;
        stroke-linejoin: round;
        stroke-width: 15px;
      }
    </style>
  </defs>
  <path class="cls-1" d="M413.29,190.15c23.48-26.16,79.08-80.58,149.77-82,15.42-.31,22.36,2.08,25.63,3.42,65.97,26.9,45.95,196.25,44.62,206.72-73.34-42.71-146.68-85.42-220.02-128.13Z"/>
  <path class="cls-1" d="M482.96,203.7c6.31-6.73,49.15-51.55,76.45-38.69,2.68,1.26,4.38,2.69,5.56,3.69,24.54,20.9,12.52,78.79,9.49,92.26-30.5-19.08-61-38.17-91.5-57.25Z"/>
  <path class="cls-1" d="M289.78,190.15c-23.48-26.16-79.08-80.58-149.77-82-15.42-.31-22.36,2.08-25.63,3.42-65.97,26.9-45.95,196.25-44.62,206.72,73.34-42.71,146.68-85.42,220.02-128.13Z"/>
  <path class="cls-1" d="M220.12,203.7c-6.31-6.73-49.15-51.55-76.45-38.69-2.68,1.26-4.38,2.69-5.56,3.69-24.54,20.9-12.52,78.79-9.49,92.26,30.5-19.08,61-38.17,91.5-57.25Z"/>
</svg>