<?xml version="1.0" encoding="UTF-8"?>
<svg id="_레이어_3" data-name="레이어 3" xmlns="http://www.w3.org/2000/svg" viewBox="0 0 703.09 1029.04">
  <defs>
    <style>
      .cls-1 {
        fill: none;
        stroke: #231815;
        stroke-linecap: round;
        stroke-linejoin: round;
        stroke-width: 15px;
      }
    </style>
  </defs>
  <path class="cls-1" d="M287.27,253.68c1.91-15.94,14.22-129.51-40.52-195.42-7.37-8.87-22.97-27.66-50.49-39.7-11.23-4.91-39.56-16.8-74.17-7.76-8.32,2.17-34.58,10.18-54.45,35.02-20.76,25.95-22.14,54.81-22.91,70.8-4.42,92.13,88.54,181.69,100.83,193.27,47.24-18.74,94.48-37.47,141.71-56.21Z"/>
  <path class="cls-1" d="M235.08,246.65c.07-10.61-.32-26.86-2.92-46.48-6.25-47.18-17.99-71.93-22.47-80.46-6.54-12.43-12.43-19.77-19.75-25.83-5.31-4.4-15.86-13.13-31.81-14.56-3.4-.3-25.16-1.9-38.73,13.17-7.3,8.11-9.49,17.99-10.67,23.32-1.68,7.57-1.52,13.86-1.37,18.45.03.84.42,10.95,3.27,21.59,6.86,25.6,33.17,63.88,39.5,73.01,7.16,10.33,16.75,23.9,28.44,39.69,18.84-7.3,37.67-14.6,56.51-21.9Z"/>
  <path class="cls-1" d="M416.54,253.68c-1.91-15.94-14.22-129.51,40.52-195.42,7.37-8.87,22.97-27.66,50.49-39.7,11.23-4.91,39.56-16.8,74.17-7.76,8.32,2.17,34.58,10.18,54.45,35.02,20.76,25.95,22.14,54.81,22.91,70.8,4.42,92.13-88.54,181.69-100.83,193.27-47.24-18.74-94.48-37.47-141.71-56.21Z"/>
  <path class="cls-1" d="M468.73,246.65c-.07-10.61.32-26.86,2.92-46.48,6.25-47.18,17.99-71.93,22.47-80.46,6.54-12.43,12.43-19.77,19.75-25.83,5.31-4.4,15.86-13.13,31.81-14.56,3.4-.3,25.16-1.9,38.73,13.17,7.3,8.11,9.49,17.99,10.67,23.32,1.68,7.57,1.52,13.86,1.37,18.45-.03.84-.42,10.95-3.27,21.59-6.86,25.6-33.17,63.88-39.5,73.01-7.16,10.33-16.75,23.9-28.44,39.69-18.84-7.3-37.67-14.6-56.51-21.9Z"/>
</svg>