<?xml version="1.0" encoding="UTF-8"?>
<svg id="_고양이" data-name="고양이" xmlns="http://www.w3.org/2000/svg" viewBox="0 0 703.09 1028.77">
  <defs>
    <style>
      .cls-1 {
        fill: none;
        stroke: #231815;
        stroke-linecap: round;
        stroke-linejoin: round;
        stroke-width: 15px;
      }
    </style>
  </defs>
  <path class="cls-1" d="M285.74,190.46c-11-15.41-32.99-41.76-69.51-60.51-16.2-8.32-59.58-30.51-110.4-17.75-14.65,3.68-56.09,14.08-68.71,48.74-8.75,24.05.83,47.51,2.27,50.9,7.79,18.32,22.08,29.52,29.33,35.2,8.59,6.73,11.1,6.59,18.49,12.38,13.43,10.53,21.74,23.97,27.11,36.62,57.14-35.19,114.28-70.38,171.42-105.57Z"/>
  <path class="cls-1" d="M424.59,181.32c7.02-9.44,29.76-37.43,69.71-46.86,52.28-12.34,93.39,16.61,105.66,25.42,16.94,12.17,34.4,24.43,37.77,44.86,5.71,34.59-31.6,75.02-70.86,82.29-45.51,8.43-83.4-29.6-103.43-49.71-20.5-20.57-32.29-41.84-38.86-56Z"/>
</svg>