<?xml version="1.0" encoding="UTF-8"?>
<svg id="_고양이" data-name="고양이" xmlns="http://www.w3.org/2000/svg" viewBox="0 0 703.09 1028.77">
  <defs>
    <style>
      .cls-1 {
        fill: none;
        stroke: #231815;
        stroke-linecap: round;
        stroke-linejoin: round;
        stroke-width: 15px;
      }
    </style>
  </defs>
  <path class="cls-1" d="M424.59,181.32c7.02-9.44,29.76-37.43,69.71-46.86,52.28-12.34,93.39,16.61,105.66,25.42,16.94,12.17,34.4,24.43,37.77,44.86,5.71,34.59-31.6,75.02-70.86,82.29-45.51,8.43-83.4-29.6-103.43-49.71-20.5-20.57-32.29-41.84-38.86-56Z"/>
  <path class="cls-1" d="M278.42,181.32c-7.02-9.44-29.76-37.43-69.71-46.86-52.28-12.34-93.39,16.61-105.66,25.42-16.94,12.17-34.4,24.43-37.77,44.86-5.71,34.59,31.6,75.02,70.86,82.29,45.51,8.43,83.4-29.6,103.43-49.71,20.5-20.57,32.29-41.84,38.86-56Z"/>
</svg>