<?xml version="1.0" encoding="UTF-8"?>
<svg id="_고양이" data-name="고양이" xmlns="http://www.w3.org/2000/svg" viewBox="0 0 703.09 1028.77">
  <defs>
    <style>
      .cls-1 {
        fill: none;
        stroke: #231815;
        stroke-linecap: round;
        stroke-linejoin: round;
        stroke-width: 15px;
      }
    </style>
  </defs>
  <path class="cls-1" d="M452.02,154.46c8.47-6.33,22.78-15.36,42.29-20,52.79-12.57,95.82,18.35,105.66,25.42,17.73,12.74,34.54,24.82,37.77,44.86,5.8,35.98-35.1,79.46-71.62,79.24-38.01-.23-80.63-47.85-76.82-115.81"/>
  <path class="cls-1" d="M250.99,154.46c-8.47-6.33-22.78-15.36-42.29-20-52.79-12.57-95.82,18.35-105.66,25.42-17.73,12.74-34.54,24.82-37.77,44.86-5.8,35.98,35.1,79.46,71.62,79.24,38.01-.23,80.63-47.85,76.82-115.81"/>
</svg>