<?xml version="1.0" encoding="UTF-8"?>
<svg id="_레이어_3" data-name="레이어 3" xmlns="http://www.w3.org/2000/svg" viewBox="0 0 703.09 1029.04">
  <defs>
    <style>
      .cls-1 {
        fill: none;
        stroke: #231815;
        stroke-linecap: round;
        stroke-linejoin: round;
        stroke-width: 15px;
      }
    </style>
  </defs>
  <path class="cls-1" d="M398.77,701.48c15.04-.62,38.93-1.96,68.19-5.24,18.41-2.06,42.79-4.41,63.21-9.18,39.26-9.18,99.08-23.16,136.18-73.44,8.77-11.88,30.38-42.16,29.21-85.52-1.27-46.78-28.24-78.04-36.32-86.75.65-28.42-2.4-84.46-36.89-140.21-43.44-70.23-109.82-96.62-141.12-108.9-9.92-3.89-58.82-22.51-126.33-23.11-71.08-.63-122.78,19.08-133.03,23.11-30.43,11.96-96.81,38.43-141.12,108.9-34.96,55.6-39.05,111.46-38.9,140.21-8.06,9.21-33.44,40.54-34.31,86.75-.82,43.75,20.81,74.14,29.21,85.52,37.09,50.28,96.91,64.26,136.18,73.44,18.43,4.31,33.36,5.9,63.21,9.18,42.84,4.7,77,5.38,99.42,5.77,15.44.27,35.89.6,63.23-.53Z"/>
</svg>