<?xml version="1.0" encoding="UTF-8"?>
<svg id="_레이어_2" data-name="레이어 2" xmlns="http://www.w3.org/2000/svg" viewBox="0 0 703.09 1029.04">
  <defs>
    <style>
      .cls-1 {
        fill: none;
        stroke: #040000;
        stroke-linecap: round;
        stroke-linejoin: round;
        stroke-width: 15px;
      }
    </style>
  </defs>
  <path class="cls-1" d="M131.38,237.15c-19.84,16.15-105.07,89.72-113.9,207.46-7.24,96.6,40.64,167.98,50.96,180.36,23.84,28.57,53.56,46.99,53.56,46.99,18.73,11.61,35.57,18,46.39,22.04,18.14,6.78,32.24,10.07,44.17,12.8,34.27,7.86,61.32,9.91,83.44,11.5,14.61,1.05,33.42,1.95,55.48,1.83,22.06.12,40.87-.78,55.48-1.83,22.12-1.59,49.17-3.64,83.44-11.5,11.92-2.73,26.02-6.02,44.17-12.8,10.82-4.04,27.66-10.43,46.39-22.04,0,0,29.73-18.42,53.56-46.99,62.6-75.02,50.96-180.36,50.96-180.36-8.83-117.74-94.06-191.31-113.9-207.46-122.2-99.46-318.01-99.46-440.21,0Z"/>
</svg>