<?xml version="1.0" encoding="UTF-8"?>
<svg id="_고양이" data-name="고양이" xmlns="http://www.w3.org/2000/svg" viewBox="0 0 703.09 1028.77">
  <defs>
    <style>
      .cls-1 {
        fill: #231815;
      }
    </style>
  </defs>
  <path class="cls-1" d="M237.05,530.42c-5.82-10.64-18.71-21.12-35.07-20.71-18.52.46-29.36,14.67-30.71,16.5-1.36-1.86-11.97-15.91-30.15-16.5-16.46-.54-29.32,10.2-35.07,20.71-11.28,20.62.46,43.05,3.52,48.76,5.34,9.96,12.13,15.84,17.59,20.48,13.73,11.65,28.45,17.44,39.89,20.42,3.01.78,6.16.71,9.15-.13,10.6-2.98,24.5-8.55,37.99-19.38,6.53-5.24,13.75-11.16,19.33-21.39,2.89-5.3,14.94-27.89,3.52-48.76Z"/>
  <path class="cls-1" d="M597,530.42c-5.82-10.64-18.71-21.12-35.07-20.71-18.52.46-29.36,14.67-30.71,16.5-1.36-1.86-11.97-15.91-30.15-16.5-16.46-.54-29.32,10.2-35.07,20.71-11.28,20.62.46,43.05,3.52,48.76,5.34,9.96,12.13,15.84,17.59,20.48,13.73,11.65,28.45,17.44,39.89,20.42,3.01.78,6.16.71,9.15-.13,10.6-2.98,24.5-8.55,37.99-19.38,6.53-5.24,13.75-11.16,19.33-21.39,2.89-5.3,14.94-27.89,3.52-48.76Z"/>
</svg>