<?xml version="1.0" encoding="UTF-8"?>
<svg xmlns="http://www.w3.org/2000/svg" version="1.1" viewBox="0 0 1080 1080">
  <!-- Generator: Adobe Illustrator 30.2.1, SVG Export Plug-In . SVG Version: 2.1.1 Build 1)  -->
  <defs>
    <style>
      .st0 {
        stroke-width: 12px;
      }

      .st0, .st1, .st2, .st3, .st4, .st5, .st6, .st7, .st8, .st9, .st10 {
        stroke-linecap: round;
        stroke-linejoin: round;
      }

      .st0, .st2, .st11, .st3, .st4, .st6, .st7, .st9 {
        fill: #fff;
      }

      .st0, .st3, .st5, .st8, .st9, .st10 {
        stroke: #231815;
      }

      .st0, .st12, .st4, .st6, .st9, .st13, .st10 {
        display: none;
      }

      .st1, .st3, .st4, .st5, .st6, .st7, .st8, .st9, .st10 {
        stroke-width: 15px;
      }

      .st1, .st6, .st7 {
        stroke: #040000;
      }

      .st1, .st8, .st10 {
        fill: none;
      }

      .st2 {
        stroke: #fff;
        stroke-width: 7px;
      }

      .st14 {
        fill: #040000;
        opacity: .21;
      }

      .st12, .st5, .st15 {
        fill: #231815;
      }

      .st4 {
        stroke: #070001;
      }
    </style>
  </defs>
  <g id="_레이어_12" data-name="레이어_12" class="st13">
    <rect class="st14" x="-175.19" y="-85.29" width="1324.19" height="1260.19"/>
  </g>
  <g id="_볼터치" data-name="볼터치" class="st13">
    <g class="st13">
      <ellipse class="st15" cx="360.2" cy="579.4" rx="70.48" ry="48.46"/>
      <ellipse class="st12" cx="719.8" cy="579.4" rx="70.48" ry="48.46"/>
    </g>
    <g>
      <path class="st15" d="M425.51,548.96c-5.82-10.64-18.71-21.12-35.07-20.71-18.52.46-29.36,14.67-30.71,16.5-1.36-1.86-11.97-15.91-30.15-16.5-16.46-.54-29.32,10.2-35.07,20.71-11.28,20.62.46,43.05,3.52,48.76,5.34,9.96,12.13,15.84,17.59,20.48,13.73,11.65,28.45,17.44,39.89,20.42,3.01.78,6.16.71,9.15-.13,10.6-2.98,24.5-8.55,37.99-19.38,6.53-5.24,13.75-11.16,19.33-21.39,2.89-5.3,14.94-27.89,3.52-48.76Z"/>
      <path class="st12" d="M785.46,548.96c-5.82-10.64-18.71-21.12-35.07-20.71-18.52.46-29.36,14.67-30.71,16.5-1.36-1.86-11.97-15.91-30.15-16.5-16.46-.54-29.32,10.2-35.07,20.71-11.28,20.62.46,43.05,3.52,48.76,5.34,9.96,12.13,15.84,17.59,20.48,13.73,11.65,28.45,17.44,39.89,20.42,3.01.78,6.16.71,9.15-.13,10.6-2.98,24.5-8.55,37.99-19.38,6.53-5.24,13.75-11.16,19.33-21.39,2.89-5.3,14.94-27.89,3.52-48.76Z"/>
    </g>
  </g>
  <g id="_꼬리" data-name="꼬리" class="st13">
    <circle class="st6" cx="540" cy="915.29" r="36.57"/>
    <g id="_레이어_15" data-name="레이어_15">
      <path class="st7" d="M517,897.19c16.81-17.45,26.8-31.67,32.63-41.02,5.68-9.11,16.76-27.81,24.51-42.79,0,0,0,0,0,0,6-11.57,8.99-18.24,16.38-20.7,8.54-2.84,18.4,1.47,24.13,7.11,9.2,9.06,8.08,21.85,7.68,26.35-.63,7.19-3.15,12.67-4.89,15.81,2.67-.38,7.69-.67,12.44,2.03,9.74,5.53,10.08,18.87,10.16,21.84.52,20.22-20.21,33.38-22.1,34.54,1.61,3.62,7.71,18.49,1.02,32.76-8.07,17.19-28.81,20.91-36.83,22.35-9.45,1.69-17.46.9-22.6,0"/>
    </g>
  </g>
  <g id="_귀" data-name="귀" class="st13">
    <path class="st9" d="M474.2,209c-11-15.41-32.99-41.76-69.51-60.51-16.2-8.32-59.58-30.51-110.4-17.75-14.65,3.68-56.09,14.08-68.71,48.74-8.75,24.05.83,47.51,2.27,50.9,7.79,18.32,22.08,29.52,29.33,35.2,8.59,6.73,11.1,6.59,18.49,12.38,13.43,10.53,21.74,23.97,27.11,36.62,57.14-35.19,114.28-70.38,171.42-105.57Z"/>
    <g class="st13">
      <path class="st9" d="M448.67,199.86c-7.02-9.44-29.76-37.43-69.71-46.86-52.28-12.34-93.39,16.61-105.66,25.42-16.94,12.17-34.4,24.43-37.77,44.86-5.71,34.59,31.6,75.02,70.86,82.29,45.51,8.43,83.4-29.6,103.43-49.71,20.5-20.57,32.29-41.84,38.86-56Z"/>
      <path class="st3" d="M421.24,173c-8.47-6.33-22.78-15.36-42.29-20-52.79-12.57-95.82,18.35-105.66,25.42-17.73,12.74-34.54,24.82-37.77,44.86-5.8,35.98,35.1,79.46,71.62,79.24,38.01-.23,80.63-47.85,76.82-115.81"/>
    </g>
    <g class="st13">
      <path class="st8" d="M466.89,199.86c-7.02-9.44-29.76-37.43-69.71-46.86-52.28-12.34-93.39,16.61-105.66,25.42-16.94,12.17-34.4,24.43-37.77,44.86-5.71,34.59,31.6,75.02,70.86,82.29,45.51,8.43,83.4-29.6,103.43-49.71,20.5-20.57,32.29-41.84,38.86-56Z"/>
      <path class="st8" d="M439.46,173c-8.47-6.33-22.78-15.36-42.29-20-52.79-12.57-95.82,18.35-105.66,25.42-17.73,12.74-34.54,24.82-37.77,44.86-5.8,35.98,35.1,79.46,71.62,79.24,38.01-.23,80.63-47.85,76.82-115.81"/>
    </g>
    <g>
      <path class="st7" d="M478.25,208.69c-23.48-26.16-79.08-80.58-149.77-82-15.42-.31-22.36,2.08-25.63,3.42-65.97,26.9-45.95,196.25-44.62,206.72"/>
      <path class="st7" d="M408.58,222.24c-7.09-7.62-48.11-50.77-76.91-38.01-2.52,1.12-4.15,2.31-5.09,3-25.7,19.02-12.54,79.22-9.49,92.26,30.5-19.08,61-38.17,91.5-57.25Z"/>
    </g>
    <g class="st13">
      <path class="st3" d="M446.99,221.32c.88-15.48,4.88-104.68-45.59-158.71-6.96-7.45-21.74-23.36-46.84-32.82-10.28-3.87-36.18-13.21-66.96-4.01-26.79,8.01-42.17,25.6-47.68,32.66-17.13,21.92-19.16,44.93-20.13,58.01-4.33,58.23,32.32,103.16,47.62,121.9,11.16,13.67,29.58,33.01,57.64,50.62"/>
      <path class="st8" d="M401.25,227.93c-2.14-17.08-4.8-31.18-6.97-41.36-8.73-41-18.07-59.01-23.97-68.83-5.94-9.89-11.31-16.39-18.69-21.85-4.93-3.65-14.74-10.89-29.13-11.54-3.06-.14-22.69-.72-34.34,12.96-6.27,7.36-7.88,16.09-8.75,20.79-1.23,6.69-.86,12.17-.56,16.19.06.73.78,9.55,3.73,18.76,8.64,26.92,38.17,62.36,38.17,62.36,8.77,10.53,20.9,24.13,36.58,39.08,14.64-8.85,29.29-17.7,43.93-26.55Z"/>
    </g>
  </g>
  <g id="_기본몸" data-name="기본몸" class="st13">
    <g id="_정면" data-name="정면">
      <path class="st11" d="M322.3,679.86h435.41c20.66,22.87,28.91,45.35,32.43,57.71,3.88,13.64,17.4,61.21-9.71,96.57-9.43,12.29-20.77,19.2-28,22.86-10.43,28.13-37.07,86.19-94.86,112-26.86,12-53.61,13.98-85.71,16.36-42.79,3.17-78.55-.4-103.43-4.36-56.19-50.29-112.38-100.57-168.57-150.86,7.48-50.1,14.96-100.19,22.44-150.29Z"/>
      <path class="st7" d="M322.3,683.6c-10.66,4.84-28.05,14.29-43.98,31.76-3.11,3.41-50.86,57.1-30.54,98.96,1.05,2.17,12.57,24.95,37.26,30.24,11.89,2.54,22.04,0,27.49-1.83"/>
      <path class="st7" d="M338.79,785c-7.43,15.21-14.98,35.4-18.33,59.86-9.38,68.57,20.85,122.46,32.99,141.72,7.84,10.97,15.25,18.99,20.77,24.43,5.49,5.4,9.35,8.49,11,9.77,3.34,2.6,9.99,7.79,17.1,11,8.35,3.76,15.86,3.78,30.54,3.67,18.88-.15,28.33-.22,36.65-6.11,3.66-2.59,6.92-7.02,13.44-15.88,6.6-8.97,11.48-16.7,14.66-21.99"/>
      <path class="st7" d="M757.7,683.6c10.66,4.84,28.05,14.29,43.98,31.76,3.11,3.41,50.86,57.1,30.54,98.96-1.05,2.17-12.57,24.95-37.26,30.24-11.89,2.54-22.04,0-27.49-1.83"/>
      <path class="st7" d="M741.21,785c7.43,15.21,14.98,35.4,18.33,59.86,9.38,68.57-20.85,122.46-32.99,141.72-7.84,10.97-15.25,18.99-20.77,24.43-5.49,5.4-9.35,8.49-11,9.77-3.34,2.6-9.99,7.79-17.1,11-8.35,3.76-15.86,3.78-30.54,3.67-18.88-.15-28.33-.22-36.65-6.11-3.66-2.59-6.92-7.02-13.44-15.88-6.6-8.97-11.48-16.7-14.66-21.99"/>
      <path class="st7" d="M488.45,985.36c15.2,2.64,33.31,4.69,53.75,4.89,19.89.19,37.59-1.42,52.53-3.67"/>
    </g>
    <g id="_측면" data-name="측면" class="st13">
      <path class="st11" d="M331.29,671.86h429.9c10.37,30.34,19.72,73.28,14.1,123.43-2.56,22.83-6.11,54.5-26.29,87.43-26.09,42.59-64.35,61.73-90.29,74.29-29.79,14.42-109.53,53.04-197.71,23.43-126.26-42.4-156.57-186.64-157.71-192.57,9.33-38.67,18.67-77.33,28-116Z"/>
      <path class="st7" d="M328.57,675.64c-25.96,15.77-41.16,34.22-49.31,45.97-9.85,14.2-37.76,53.92-24.24,90.27,1.91,5.14,8.36,22.13,25.91,29.25,17.65,7.16,34.4-.58,37.76-2.22"/>
      <path class="st7" d="M341.38,778.71c-11.53,21.47-16.62,40.58-19.08,53.64-8.05,42.74,1.35,77.54,6.27,95.28,3.54,12.76,7.8,23.9,12.36,33.7,6.68,14.36,13.49,29.7,27.76,45.28,8.73,9.53,17.96,19.61,33.63,25.16,10.94,3.88,20.08,4,31.98,4.09,15.63.12,24.75.18,33.83-5.62,6.6-4.22,10.12-9.58,17.15-20.29,5.61-8.54,9.33-16.22,11.7-21.73"/>
      <path class="st7" d="M486.12,984.05c11.03,2.18,23.34,3.99,36.78,5.01,21.44,1.64,40.63.88,56.83-.84,2.92,6.46,7.64,15.45,15.04,25.07,5.83,7.57,8.88,11.87,14.21,15.04,1.15.69,4.37,2.51,12.15,4.55,5.22,1.37,14.96,3.84,28.06,3.44,6.13-.19,17.84-.65,30.86-6.19,15.42-6.57,24.22-16.67,32.95-26.69,2.73-3.13,13.46-15.72,23.81-37.51,2.2-4.64,10.47-22.49,16.95-53.14,3.9-18.44,7.81-44.6,7.34-76.7"/>
      <path class="st7" d="M727.25,808.53c4.22,6.08,16.1,21.47,37.61,28.84,8.68,2.97,27.4,9.42,45.13,0,16.51-8.77,22.04-25.91,23.38-30.08,9.34-28.96-7.46-56.82-17.56-73.56-17.68-29.31-41.79-46.37-58.12-55.58"/>
    </g>
    <g id="_옆면" data-name="옆면" class="st13">
      <path class="st7" d="M710.98,683.6c8.05,16.12,18.23,40.08,24.76,70.46,5.91,27.53,14.31,66.7,1.9,108.54-18.29,61.66-71.31,93.82-88.86,103.46-17.85,19.26-33.18,34.91-44.86,46.55-9.79,9.76-14.31,14.02-22,17.77-5.71,2.79-13.19,5.31-49.09,5.08-36.85-.23-42.82-2.97-47.39-6.77-3.41-2.83-7.4-9.26-15.23-22-6.28-10.21-11.14-18.82-14.39-24.76-15.56-5.15-37.28-13.82-60.94-28.56-20.4-12.72-41.72-26.01-58.4-49.51-26.55-37.42-25.79-78.84-25.39-100.29,1.04-56.25,25.11-97.72,38.08-116.79"/>
      <path class="st7" d="M484.37,765.48c4.15,19.03,11.92,32.4,17.14,39.99,7.56,11,15.36,22.35,30.47,28.56,16.42,6.75,31.64,3.41,38.08,1.9,16.19-3.78,26.64-12.34,32.37-17.14,33.78-28.29,40.61-78.63,41.89-89.5"/>
    </g>
  </g>
  <g id="_통통몸" data-name="통통몸" class="st13">
    <g id="_정면1" data-name="정면">
      <path class="st11" d="M337.57,689.57h404.69c8.66,7.6,23.67,23.13,28.83,46.48,2.7,12.2,4.23,33.45-16.05,71.86-19.91,37.71-35.44,43.85-102.94,110.23-46.23,45.47-63.35,66.58-97,70.1-16,1.67-28.15-1.43-40-4.57-61.89-16.41-100.88-65.52-140.95-117.33-14.77-19.1-34.92-47.21-55.6-83.81,6.34-30.98,12.69-61.97,19.03-92.95Z"/>
      <path class="st7" d="M337.57,689.57c-19.86,7.35-34.61,16.32-44.45,23.24-15.13,10.63-60.81,42.74-54.69,75.82.53,2.87,1.82,9.36,6.98,14.69,14.08,14.53,47.4,10.52,83.79-10.57"/>
      <path class="st7" d="M742.25,689.57c19.86,7.35,34.61,16.32,44.45,23.24,15.13,10.63,60.81,42.74,54.69,75.82-.53,2.87-1.82,9.36-6.98,14.69-14.08,14.53-47.4,10.52-83.79-10.57"/>
      <path class="st7" d="M741.15,779c7.01,11.17,16.39,29.51,20,53.81,1.53,10.31,5.38,38.74-8.14,70.76-2.39,5.67-9.72,21.84-24.62,37.62-34.52,36.54-81.63,41.22-96.19,42.09-.2,4.05-2.23,36.23-26.2,51.43-3.51,2.22-12.28,7.63-24.66,7.81-4.15.06-15.01.22-24.38-7.05-10.48-8.13-12.85-20.69-14.48-29.33-1.15-6.12-1.23-11.32-1.1-14.86"/>
      <path class="st7" d="M340.24,779c-7.01,11.17-16.39,29.51-20,53.81-1.53,10.31-5.38,38.74,8.14,70.76,2.39,5.67,9.72,21.84,24.62,37.62,34.52,36.54,81.63,41.22,96.19,42.09.2,4.05,2.23,36.23,26.2,51.43,3.51,2.22,12.28,7.63,24.66,7.81,4.15.06,15.01.22,24.38-7.05,10.48-8.13,12.85-20.69,14.48-29.33,1.15-6.12,1.23-11.32,1.1-14.86"/>
    </g>
    <g id="_측면1" data-name="측면" class="st13">
      <path class="st11" d="M333.57,689.57h413.71c27.47,26.55,32.25,47.13,31.43,61.14-1.13,19.22-13.11,30.8-16.69,62.29-1.56,13.76-.83,25.2,0,32.56-6.37,15.61-18.04,38.86-39.3,61.16-31.75,33.3-66.99,45.7-110.86,60.57-51.45,17.44-77.18,26.16-109.05,19.42-34.44-7.29-55.53-27.48-91.52-62.84-25.65-25.21-60.46-64.16-93.44-119.43-5.81-32.57-11.61-65.14-17.42-97.71,11.05-5.71,22.1-11.43,33.14-17.14Z"/>
      <g>
        <path class="st7" d="M329.44,692.43c-22.5,9.23-37.66,21.35-46.73,29.87-9.96,9.37-47.36,44.59-39.24,78.72.81,3.4,4.16,17.44,16.76,24.94,11.68,6.95,25.33,4.74,29.33,4.09,6.02-.97,10.53-2.89,13.33-4.09,8.9-3.82,15.28-8.85,19.24-12.47"/>
        <path class="st7" d="M748.81,693.8c16.88,10.58,28.51,21.99,35.81,30.21,11.08,12.46,22.87,25.74,27.43,46.68,1.69,7.76,5.02,24.17-3.05,39.62-1.84,3.53-6.4,12.25-16.19,16.67-5.87,2.65-11.08,2.61-13.9,2.55-3.2-.06-13.06-.68-29.4-12.36-6.87-4.91-10.34-8.54-19.56-17.52-6.13-5.98-15.4-14.92-27.15-25.84"/>
        <path class="st7" d="M340.37,777.19c-6.86,10.26-18.75,31.02-21.84,59.81-.84,7.83-4.22,45.89,18.48,82.86,35.51,57.85,104.17,63.02,111.05,63.43.52,6.52,2.17,16.96,7.87,28.32,2.7,5.36,5.91,11.77,12.7,17.78,2.01,1.78,15.69,13.51,35.24,12,3.73-.29,11.29-.89,18.67-5.71,17.59-11.5,17.21-35.93,17.14-38.29"/>
        <path class="st7" d="M498.33,985.95c7.93,1.37,16.25,2.6,24.95,3.62,6,.7,11.85,1.27,17.52,1.71-.38,3.57-.58,8.68.38,14.67,1.02,6.39,3.54,22.14,16.83,31.05,9.41,6.31,19.43,5.97,23.62,5.84,12-.38,20.35-5.52,23.56-7.56,10.9-6.91,15.97-16.18,18.6-21.14,6.5-12.25,7.35-23.84,7.3-30.29,7.68-.62,18.27-2,30.48-5.33,5.01-1.37,39.85-11.22,63.81-33.46,42.99-39.92,36.71-106.56,35.81-114.79"/>
      </g>
    </g>
    <g id="_옆면1" data-name="옆면" class="st13">
      <path class="st11" d="M388.24,703.67h305.2c12.01,18.47,27.66,49.19,30.04,89.14,4.89,82.14-50.29,136.87-63.62,150.1-17.02,16.88-40.09,39.13-75.18,43.05-6.47.72-27.49,2.4-58.92-11.05-90.91-38.9-124.63-142.64-128-153.52-7.25-23.43-16.43-64.57-9.52-117.71Z"/>
      <path class="st7" d="M487.36,759.16c2.23,5.25,22,50.61,49.51,62.79,5.16,2.28,14.5,6.42,24.76,3.24,7.61-2.36,12.14-7.62,13.9-9.71,10.79-12.84,9.33-30.42,7.62-48.19-1.13-11.76-4.08-29.1-12.44-49.14"/>
      <path class="st7" d="M386.14,709.57c-11.55,9.26-54.56,46.04-63.56,108.76-2.1,14.68-9.27,64.75,22.48,107.81,29.61,40.15,75.29,50.3,97.52,55.24,19.67,4.37,36.55,4.89,48.13,4.57-.39,8.48.02,27.74,12.7,44.44,2.81,3.69,7.54,9.73,16,13.97,1.42.71,19.69,9.51,37.34.51,7.95-4.06,12.24-9.93,15.49-14.48,11.79-16.51,12.74-34.89,12.44-44.44"/>
      <path class="st7" d="M697,710.71c11.29,9.43,52.38,46.05,60.65,107.62,1.93,14.36,8.83,65.75-24.4,109.33-29.6,38.82-73.77,48.79-95.6,53.71-21.67,4.89-40.29,5.18-52.97,4.57"/>
    </g>
  </g>
  <g id="_기본몸_x5F_동작" data-name="기본몸_x5F_동작" class="st13">
    <g class="st13">
      <path class="st11" d="M363.86,702.71h375.63c6.75,21,14.87,52.26,17.67,90.86,3.35,46.33,5.86,80.96-11.58,113.71-30.03,56.4-99.88,70.96-135.43,78.37-22.33,4.66-80.01,13.67-146.29-10.37-70.57-25.59-109.74-73.74-122.86-90.29-6.63-8.36-11.66-15.71-15.07-20.95-6.03-.06-20.02-1.07-31.21-11.05-18.98-16.92-14.21-45.62-12.9-53.51.76-4.56,3.68-19.52,22.23-43.7,10.77-14.03,29.52-34.7,59.81-53.08Z"/>
      <path class="st8" d="M363.86,707.1c-12.13,6.68-62.3,35.62-78.7,81.75-3.17,8.92-8.87,25.63-3.43,44.63,1.75,6.13,5.35,18.69,17.52,26.41,9.67,6.13,19.71,6.02,24,5.71"/>
      <path class="st3" d="M709.79,824.09c2.98,3.23,7.54,8.43,12.57,15.37,4.14,5.71,5.32,8.07,8.63,12.19,2.2,2.73,7.87,9.78,15.87,14.86,3.1,1.96,17.1,10.86,35.05,7.11,3.44-.72,16.01-3.77,24.89-14.73,11.74-14.49,9.29-33.42,7.87-44.32-6.88-52.98-63.57-104.72-75.2-115.09"/>
      <path class="st3" d="M360.2,790.56c-3.29,3.46-7.63,8.48-12,15.05-1.52,2.28-7.26,11.1-13.52,28-3.48,9.4-7.53,22.39-10.29,38.48-3.5-.08-33.94-.31-50.1,22.86-2.08,2.99-7.26,11.14-8.38,22.48-2.49,25.24,16.91,48.02,35.62,59.43,1.16.71,2.02,1.21,2.46,1.44,6,3.02,17.27,5.16,61.15,6.56,15.87.51,31.74.94,47.62.76,23.95-.27,58.37-.58,105.14-.76"/>
      <path class="st3" d="M757.16,877.42c-.85,20.67-5.7,36.83-9.71,47.24-4.86,12.6-13.41,34.01-34.86,51.43-2.25,1.82-8.04,6.37-16.25,10.79-16.39,8.82-33.76,10.4-67.81,13.21-36.97,3.04-65.53,5.17-89.3-3.47-2.67-.97-6.21-2.42-10.16-5.08-19.33-13.05-22.46-37.9-22.75-40.44,0-.01,0-.07-.02-.15-.67-6.18-1.74-16.08,2.1-26.03,3.94-10.22,22.8-26.71,52.83-32.76"/>
    </g>
    <g class="st13">
      <path class="st11" d="M784.05,664.94h-481.54c-7.74,4.6-31.71,20.2-42.08,50.92-7.22,21.39-4.31,39.58-2.86,48,1.82,10.54,6.8,37.06,30.29,57.71,20.06,17.64,42.53,21.24,51.73,22.17,6.17,14.36,15.95,34.12,31.13,55.54,16.06,22.67,33.94,47.91,66.59,66.79,36.27,20.97,70.91,22.61,89.41,23.27,41.65,1.48,74.62-9.48,93.74-17.67,12.37,13.01,23.81,22.74,32.55,29.57,20.49,16.01,29.69,18.81,32.73,19.66,11.72,3.26,21.3,2.36,31.84,1.37,9.78-.92,22.56-2.27,35.49-10.37,7.92-4.96,11.51-9.72,12.51-11.09,4.71-6.5,6.21-13.01,7.22-18.86,4.76-27.43,1.21-53.59-1.56-68.64-1.07-5.83-2.13-10.54-2.81-13.45.71-6.25,1.39-14.88,1.22-25.15-.38-24.27-5.21-42.82-7.68-51.21-2.69-9.16-6.97-21.1-13.92-34.37,4.38-1.16,10.5-3.23,17.09-7.1,19.09-11.2,27.11-28.64,29.98-35.13,2.6-5.86,9.45-21.88,6.46-43.04-2.85-20.17-13.02-33.6-17.54-38.92Z"/>
      <path class="st8" d="M297.19,668.24c-6.42,3.74-30.46,18.78-40.38,49.52-10.66,33.01,2.53,60.69,6.1,68.19,22.68,47.76,76.51,57.98,82.67,59.05,4.01,17.14,16.44,59.68,55.43,95.43,7.45,6.83,36.98,32.77,84,44,7.54,1.8,42.54,9.67,86.86.76,18.57-3.73,33.57-9.37,44.19-14.1,7.8,1.06,19.38,2.44,33.52,3.43,28.76,2.01,35.66.11,38.48-.76,17.72-5.49,28.01-18.05,31.24-22.1,4.26-5.34,11.5-14.41,12.95-27.05,2.1-18.2-9.1-32.56-16.38-41.9-22.05-28.3-53.61-38.26-68.95-41.9"/>
      <path class="st8" d="M725.76,755.86c9.5,11.38,20.88,27.69,29.71,49.14,16.37,39.78,15.1,75.72,12.95,94.86,5.7,23.91,6.68,43.89,6.48,57.71-.45,30.55-6.77,39.87-9.33,43.24-8.13,10.65-19.3,14.9-28.19,18.29-6.39,2.43-21.91,8.03-40.95,4.76-12.9-2.22-21.43-7.89-38.48-19.24-9.45-6.29-21.75-15.35-35.05-27.81"/>
      <path class="st8" d="M784.05,664.94c3.06,3.83,7.04,9.51,10.41,17.02,1.61,3.59,10.98,25.19,5.33,50.79-8.3,37.59-42.49,54.38-46.73,56.38"/>
    </g>
    <g class="st13">
      <path class="st11" d="M716.24,708.23h-340.58c-11.35,10.79-26.26,27.87-37.33,52.2-5.57,12.24-19.56,44.08-13.9,85.33,1.46,10.61,4.89,33.63,21.35,57.78,16.01,23.49,35.97,35.75,46.41,41.22-2.16,14.28-3.27,32.46.28,50.7,1.28,6.58,2.94,12.02,6.49,17.56,6.13,9.56,14.54,14.18,19.18,16.65,9.62,5.13,17.7,6.14,29.55,7.63,15.72,1.97,27.86.75,33.51,0,7.51-1,13.87-1.84,21.61-5.09,10.55-4.43,15.26-9.78,21.82-14.65,7.67-5.69,19.91-12.21,39.37-14.61,4.91,5.09,13,12.3,24.63,18.04,23.02,11.36,44.35,9.25,53.7,8.2,11.71-1.31,22.5-2.52,33.32-10.4,11.38-8.28,16.15-19.12,19.91-27.94,8.95-21.01,8.2-40.86,6.56-52.88,3.8-5.17,8.81-12.39,14.13-21.36,5.89-9.93,13.34-22.49,19.05-39.62,3.44-10.32,7.32-25.56,8.1-44.8,3.6-2.51,9.37-6.04,17.05-8.54,12.3-4,20.09-2.28,38.1-2.29,19.2,0,28.8,0,38.58-3.35,6.84-2.34,22.34-7.64,30.75-22.94,11.3-20.57.77-42.76,0-44.32-4.38-8.87-13.45-20.08-44.19-31.11-20.75-7.45-57.38-16.96-107.43-11.44Z"/>
      <path class="st8" d="M375.67,706.33c-50.9,58.2-65.31,132.24-36.73,185.93,14.85,27.89,38.15,44.38,55.24,53.59"/>
      <path class="st8" d="M430.72,906.55c-6.83,4.56-16.15,12.15-23.84,24.1-15.72,24.43-23.2,64.92-4.3,87.42,12.36,14.71,32.41,17.52,53.54,20.43,7.76,1.07,15.95,2.13,26.58.41,14.73-2.38,23.21-8.35,39.47-17.57,0,0,20.77-11.77,42.6-21.65,17.5-7.92,19.1-6.79,61.36-22.06,33.71-12.18,40.43-15.69,44.55-17.97,1.36-.76,23.58-12.53,39.47-29.41,31.38-33.34,33.28-81.3,33.22-98.05"/>
      <path class="st8" d="M741.48,831.06c6.09-1.74,16.05-4.27,28.57-5.9,29.67-3.88,37.92,1.96,57.33-3.81,7.63-2.27,26.91-7.99,37.14-25.52,9.48-16.24,6.75-35,4-43.24-10.84-32.41-71.6-50.12-149.9-42.67"/>
      <path class="st8" d="M563.99,1002.96c9.94,7.34,27.52,18.27,51.59,22.88,16.29,3.12,36.92,7.07,55.11-3.68,21.71-12.83,32.87-42.43,31.27-74.76"/>
    </g>
    <g id="_레이어_9" data-name="레이어_9">
      <path class="st3" d="M378.71,717.57c-8.63-3.84-20.58-9.92-33.52-19.24-29.53-21.26-35.79-39.02-59.94-44.57-5.43-1.25-18.12-3.98-31.02,2.06-17.06,7.99-22.82,25.76-24.6,31.21-5.08,15.54-2.29,28.84,0,39.11,13.04,58.51,69.05,87.39,73.62,89.68,7.51,3.76,13.94,6.12,17.94,7.46"/>
      <path class="st3" d="M329.7,794.97c-3.2,11.57-13.52,54.36,9.24,97.3,10.49,19.79,24.37,32.74,34.19,40.35"/>
    </g>
  </g>
  <g id="_통통몸_x5F_동작" data-name="통통몸_x5F_동작" class="st13">
    <g class="st13">
      <path class="st11" d="M732.5,696.55h-383.11c-13.56,5.3-34.8,16.28-43.94,37.71-10.18,23.89.83,48.06,22.86,96.38,6.64,14.56,24.05,50.56,56.76,90.29,13.47,16.36,20.2,24.53,27.81,29.71,25.15,17.12,48.3,12.62,121.14,7.62,75.01-5.15,83.54-2.65,117.71-10.29,57.67-12.88,73.37-28.94,78.48-34.67,21.25-23.82,24.1-53.74,24.38-68.57-7.37-49.4-14.73-98.79-22.1-148.19Z"/>
      <path class="st3" d="M346.46,695.92c-5.8,3.61-15.59,10.14-26.41,19.81-6.36,5.69-64.56,58.79-50.79,99.3,1.02,3.01,4.56,12.85,14.22,18.54,13.58,8,29.39,1.96,32.38.76"/>
      <path class="st3" d="M345.19,772.62c-8.26,11.03-23.14,34.11-27.05,66.67-1.48,12.29-6.8,56.62,23.75,93.59,21,25.42,48.13,34.25,60.19,37.33"/>
      <path class="st3" d="M444.62,908.24c-2.23-.36-26.23-3.8-40,12.57-1.36,1.61-5.34,6.66-7.11,14.35-3.64,15.85,4.51,32.6,15.75,41.4,2.88,2.26,10.33,7.4,42.67,8.13,13.07.29,30.69-.13,51.56-3.05"/>
      <path class="st3" d="M549.89,905.19c-2.84-.3-33.7-3.1-49.02,17.52-1.93,2.6-5.84,8.58-7.11,17.02-2.47,16.47,6.45,33.5,19.56,41.4,6.8,4.1,14.11,4.65,28.44,5.59,15.25,1,27.84.02,36.32-1.02,6.73.09,16.47.07,28.19-.51,15.88-.78,38.68-1.9,58.41-6.86,13.5-3.39,44.22-11.1,65.65-35.81,30.65-35.32,23.33-83.51,21.71-92.95"/>
      <path class="st3" d="M699.22,800.99c7.94,8.02,13.99,15.2,18.29,20.64,8.06,10.2,9.54,13.75,15.49,17.52,1.83,1.16,12.59,7.73,26.16,4.92,2.75-.57,12.21-2.62,19.05-11,1.54-1.89,6.12-7.99,7.11-21.86,1.39-19.48-5.7-34.73-13.71-51.98-7.15-15.38-14.21-25.54-16.02-28.1-9.09-12.89-18.57-22.45-26.14-29.13"/>
    </g>
    <g class="st13">
      <path class="st11" d="M270.14,640.43c168.53,5.33,337.06,10.67,505.59,16,4.32,6.03,10.58,16.59,12.7,30.86,4.78,32.23-15.59,56.52-19.98,61.75-9.88,11.78-21.16,18.82-29.82,22.99,24.3,32.48,25.68,60.99,25.52,71.82-.39,27.18-12.04,51.27-23.72,75.43-4.84,10.01-9.43,18.06-12.76,23.62,1.56,2.16,10.02,14.34,7.05,30.67-2.69,14.78-12.96,23.09-17.33,26.1-15.62,10.73-33.28,6.84-37.52,5.9-17.92-3.95-29.85-16.78-42.81-30.71-4.31-4.63-7.58-8.72-9.76-11.58-8.85,6.16-21.93,13.95-38.98,19.83-29.21,10.07-53.63,8.86-66.73,8.09-39.31-2.33-67.63-16.06-81.14-22.77-18.54-9.21-52-26.32-78.36-63.13-34.34-47.96-35.14-99.37-34.41-118.96-24.48-9.86-39.44-23.9-47.17-32.38-8.45-9.29-39.97-43.91-29.79-82.1,4.05-15.2,13.3-25.65,19.43-31.43Z"/>
      <path class="st8" d="M269,645c-3.78,4.74-8.85,12.26-12.19,22.48-6.91,21.15-1.68,39.46.76,48,13.03,45.62,63.43,68,70.1,70.86"/>
      <path class="st8" d="M331.86,763.48c-3.3,16.49-6.48,43.46.38,75.05,14.65,67.48,64.11,105.43,81.52,117.33,64.71,44.25,147.63,43.98,204.57,15.62,14.27-7.11,53-26.4,60.95-63.24,1.22-5.66,7.26-33.62-10.29-46.86-11.75-8.87-30.24-8.24-46.48,1.52"/>
      <path class="st8" d="M633.19,966.9c1.89,4.7,10.78,25.38,33.52,35.05,4.59,1.95,31.38,13.34,50.67-2.29,14.83-12.01,19.54-35.39,10.29-56.76,5.99-6.47,13.8-16.19,20.57-29.33,0,0,12.23-23.74,14.48-52.19,4.29-54.26-30.18-99.31-36.57-107.43"/>
      <path class="st8" d="M775.29,661.57c2.29,4.66,5.06,11.38,6.86,19.81.58,2.72,3.98,19.55-.76,39.05-7.43,30.57-30.16,48.23-36.95,53.14"/>
    </g>
    <g class="st13">
      <path class="st11" d="M716.62,699.48c-45.9.65-164.41.77-324.44,1.78-6.4,5.71-15.34,14.08-25.38,24.84-21.08,22.59-34.49,37.68-44.08,59.48-11.96,27.19-9.66,52.57-8.52,65.12,3.55,39.19,21.63,66.84,31.02,79.28-3.48,3.03-9.14,8.83-12.49,17.76-3.9,10.42-2.51,19.42-1.25,27.55,1.72,11.1,3.07,19.85,10.23,27.85,11.41,12.73,28.03,12.91,30.9,12.89,10.58-.08,18.12-4.2,24.94-8.03,15.7-8.83,25.26-21.38,30.69-30.42,9.12,2.77,22.76,6.44,39.62,9.14,20.59,3.3,36.18,3.59,72.14,3.43,27.87-.12,52.88-.44,74.47-.83,14.65,13.5,29.07,19.86,37.83,22.93,12.72,4.46,29.25,10.25,46.67,3.43,3.81-1.49,15.72-6.16,21.84-18.29,4.81-9.52,3.66-18.91,2.87-25.42-1.28-10.48-5.13-18.37-7.82-22.96,4.8-5.49,10.96-13.2,17.14-23.05,3.87-6.16,15.12-24.37,20.95-47.05,8.88-34.54,1.56-65.44-3.43-81.14,9.28,6.11,22.85,12.85,40,14.79,11.12,1.26,22.3,2.52,33.17-4.38,1.3-.82,14.11-9.24,16.66-24.51,2.62-15.74-7.42-28.3-15.71-38.65-20.41-25.52-47.7-34.68-59.59-38.5-23.65-7.6-43.31-7.11-48.45-7.04Z"/>
      <path class="st8" d="M390.14,705.32c-13.12,8.86-33.19,24.98-49.52,51.11-8.45,13.52-28.27,46.2-25.33,91.05,2.04,31.13,14.07,54.47,22.1,67.24,3.17,3.75,6.35,7.49,9.52,11.24"/>
      <path class="st8" d="M747.79,799.54c6.48.9,15.66,2.59,26.35,6.03,2.57.83,6.35,2.68,12.19,4.25,3.34.9,8.29,2.2,14.29,2.54,4.93.28,11.95.68,19.43-2.41,1.96-.81,14.5-6.2,18.92-19.05,1.29-3.75,2.85-10.92-1.33-23.11-8.98-26.17-32.81-41.49-41.59-46.98-29.15-18.23-58.8-21.17-75.81-21.33"/>
      <path class="st8" d="M347.63,927.66c-18.3,16.6-24.77,40.97-16.63,60.08,4.36,10.23,13.83,21.11,27.72,25.83,3.71,1.26,14.9,4.52,27.37.57,9.55-3.03,15.59-9.21,27.68-21.59,6.56-6.72,11.5-12.67,14.73-16.76,23.06,6.34,50.8,12.12,82.47,15.07,41.27,3.86,77.35,1.82,105.98-1.87,27.63,24.76,59.36,36.01,82.03,26.67,4.43-1.83,15.86-6.54,21.84-18.29,6.18-12.13,3.1-24.97,1.78-30.48-2.11-8.8-5.98-15.26-8.63-19.05,9.73-7.65,26.69-23.24,37.33-48.57,18.97-45.15,3.37-86.75-.44-96.19"/>
    </g>
    <g id="_레이어_10" data-name="레이어_10">
      <path class="st3" d="M388.24,717.48c-27.75-11.75-43.15-26.51-52.19-38.38-4.84-6.36-18.78-26.23-38.1-36.19-2.36-1.22-6.6-3.21-12.34-4.23-2.56-.45-16.89-3.05-28.37,4.99-9.03,6.32-12.11,16.03-13.46,20.57-12.7,42.79,35.9,97.35,41.14,103.11,12.4,13.61,25.33,23.86,37.03,31.56"/>
      <path class="st3" d="M328.43,784.24c-3.69,6.61-7.88,15.71-10.67,27.05-3.88,15.81-3.44,29.42-2.41,38.41"/>
    </g>
  </g>
  <g id="_기본_얼굴형" data-name="기본_얼굴형" class="st13">
    <g id="_정면2" data-name="정면">
      <path class="st7" d="M319.84,255.69c-19.84,16.15-105.07,89.72-113.9,207.46-7.24,96.6,40.64,167.98,50.96,180.36,23.84,28.57,53.56,46.99,53.56,46.99,18.73,11.61,35.57,18,46.39,22.04,18.14,6.78,32.24,10.07,44.17,12.8,34.27,7.86,61.32,9.91,83.44,11.5,14.61,1.05,33.42,1.95,55.48,1.83,22.06.12,40.87-.78,55.48-1.83,22.12-1.59,49.17-3.64,83.44-11.5,11.92-2.73,26.02-6.02,44.17-12.8,10.82-4.04,27.66-10.43,46.39-22.04,0,0,29.73-18.42,53.56-46.99,62.6-75.02,50.96-180.36,50.96-180.36-8.83-117.74-94.06-191.31-113.9-207.46-122.2-99.46-318.01-99.46-440.21,0Z"/>
    </g>
    <g id="_반측면" data-name="반측면" class="st13">
      <path class="st7" d="M327.29,253c-12.57,10.36-94.76,80.27-109.14,197.14-10.17,82.68,17.6,156.3,41.71,188,19.66,25.84,45.46,45.33,45.46,45.33,12.86,9.72,24.26,16.04,27.43,17.78,11.54,6.3,20.81,10,24.11,11.28,5.61,2.17,9.89,3.53,13.82,4.78,11.76,3.73,21.64,6.03,30.35,8.03,34.27,7.86,61.32,9.91,83.44,11.5,14.61,1.05,33.42,1.95,55.48,1.83,22.06.12,40.87-.78,55.48-1.83,22.12-1.59,49.17-3.64,83.44-11.5,11.92-2.73,26.02-6.02,44.17-12.8,10.82-4.04,27.66-10.43,46.39-22.04,0,0,29.73-18.42,53.56-46.99,62.6-75.02,50.96-180.36,50.96-180.36,0-110.11-103.88-199.1-113.9-207.46-110.27-92.07-307.77-105.73-432.76-2.69Z"/>
    </g>
    <g id="_측면2" data-name="측면" class="st13">
      <path class="st7" d="M334.9,256.4c-19.84,16.15-105.07,89.72-113.9,207.46-7.24,96.6,40.64,167.98,50.96,180.36,23.84,28.57,53.56,46.99,53.56,46.99,18.73,11.61,35.57,18,46.39,22.04,18.14,6.78,32.24,10.07,44.17,12.8,34.27,7.86,51.98,9.2,74.1,10.79,14.61,1.05,33.42,1.95,55.48,1.83,22.06.12,40.87-.78,55.48-1.83,22.12-1.59,39.66-3.64,73.93-11.5,11.92-2.73,26.02-6.02,44.17-12.8,10.82-4.04,27.66-10.43,46.39-22.04,0,0,29.73-18.42,53.56-46.99,62.6-75.02,50.96-180.36,50.96-180.36-8.83-117.74-94.06-191.31-113.9-207.46-122.2-99.46-299.16-98.75-421.35.71Z"/>
    </g>
  </g>
  <g id="_눈" data-name="눈">
    <circle class="st12" cx="431.14" cy="468.48" r="26"/>
    <path class="st12" d="M450.57,482.34c0,22.02-6.58,39.86-21.58,39.86s-21.58-17.85-21.58-39.86,5.44-39.86,21.58-39.86c15.25,0,21.58,17.85,21.58,39.86Z"/>
    <g class="st13">
      <path class="st5" d="M433,422.26c-1.35-.33-13.28-3.09-23.81,3.81-1.69,1.11-6.28,4.72-9.33,9.71-1.44,2.36-1.72,3.55-3.81,8.19-1.65,3.67-2.15,4.21-3.07,6.18-1.64,3.5-3.43,8.13-4.07,11.16-1.54,7.34,1.34,16.54,7.24,22.66,6.89,7.16,15.69,7.82,21.81,8.29,5.25.4,19.26,1.46,29.33-8.48,8.04-7.93,8.87-18.27,9.33-24,.42-5.27,1.19-14.72-4.86-23.97-1.86-2.85-7.73-10.83-18.76-13.55Z"/>
      <path class="st2" d="M431.35,430.39c-1-.08-9.78-.79-12.92,5.21-1.69,3.22-1.18,7.28.6,10.03,1.47,2.27,3.84,3.23,8.57,5.14,4.34,1.76,6.51,2.63,9.52,2.35,1.24-.12,6.4-.6,8.44-4.48,1.74-3.29.15-7.01-.51-8.54-2.2-5.15-7.59-9.22-13.71-9.71Z"/>
      <path class="st2" d="M403.19,462.55c-3.45-.26-6.81,3.38-7.71,6.86-1.55,5.97,3.8,12.84,9.81,14.1,2.4.5,6.51.44,8.19-2,2.22-3.22-1.17-8.63-3.52-12.38-2.33-3.71-3.99-6.36-6.76-6.57Z"/>
      <path class="st2" d="M436.33,471.21c-2.83.94-5.65,3.98-5.05,7.24.31,1.66,1.5,3.36,3.24,4,3.08,1.13,6.44-1.57,7.81-4.1.25-.46,2.05-3.76.38-6-1.48-2-4.66-1.72-6.38-1.14Z"/>
    </g>
    <path class="st7" d="M449.57,416.94c-15.41-13.37-35.09-9.51-39.43-8.52-3.53.81-21.37,4.89-29.9,21.46-8.66,16.82-3.47,38.18,9.4,50.54,18.31,17.58,50.26,15.1,65.02-1.78,10.82-12.38,9.4-29.05,9.14-32-.36-4.22-1.86-18.98-14.22-29.7Z"/>
    <path class="st6" d="M481.57,457c-.73-4.48-5.33-7.86-11.05-10.37-14.84-5.84-29.7-11.65-44.57-17.44-18.14-7.05-36.29-14.06-54.46-21.01-4.63-1.89-9.97-3.19-13.16-.7-10.42,8.12,0,58.12,34.35,75.87,22.99,11.89,46.79,4.19,53.59,1.99,15.38-4.98,37.06-17.51,35.3-28.34Z"/>
  </g>
  <g id="_통통_얼굴형" data-name="통통_얼굴형" class="st13">
    <g id="_정면3" data-name="정면">
      <path class="st3" d="M317.28,694.48c-69.18-20.45-93.64-42.23-107.98-64.09-24.19-36.89-21.37-76.84-20.79-83.73,3.54-41.96,25.81-69.29,33.49-77.95.19-27.28,4.38-90.4,45.82-153.2,46.52-70.51,111.65-97.64,142.6-110.04,18.87-7.56,131.81-50.7,256.77,1.09,27.77,11.51,96.76,41.24,145.18,117.03,39.27,61.46,45.05,121.97,45.94,150.32,7.82,8.97,30.76,37.61,33.37,80.84.39,6.52,2.26,46.65-22.39,82.57-10.51,15.31-36.28,45.06-141.6,66.21-28.61,5.75-75.3,13.31-182.08,13.47-139.57.22-194.4-12.49-228.33-22.52Z"/>
    </g>
    <g id="_반측면1" data-name="반측면" class="st13">
      <path class="st3" d="M317.28,694.48c-62.66-20.5-86.63-42.65-100.85-63.77-26.36-39.11-23.35-80.67-22.86-86.29,3.56-40.8,25.25-67.66,33.14-76.57.56-27.35,5.58-89.79,46.86-152.57,46.63-70.92,111.06-99,136.86-109.82,123.52-51.81,236.59-7.27,256.77,1.09,27.77,11.51,96.76,41.24,145.18,117.03,39.27,61.46,45.05,121.97,45.94,150.32,7.82,8.97,30.76,37.61,33.36,80.84.39,6.52,2.26,46.65-22.39,82.57-10.51,15.31-36.28,45.06-141.6,66.21-28.61,5.75-75.3,13.31-182.08,13.47-145.43.23-195.33-11.72-228.33-22.52Z"/>
    </g>
    <g id="_측면3" data-name="측면" class="st13">
      <path class="st3" d="M331.29,690.14c-24.13-8.65-64.89-23.54-92-59.43-22.91-30.32-26.32-62.84-27.43-74.86-3.82-41.39,10.03-72.88,16.57-85.71,1.6-28.21,8.79-87.7,48-149.14,17.49-27.4,59.1-83.03,134-115.53,52.8-22.91,98.56-24.1,121.43-24.47,23.41-.38,75.57-.66,135.34,25.56,31.72,13.92,92.71,47.2,136.09,117.3,37.37,60.4,43.48,118.78,44.57,146.86,5.69,13.4,15.65,41.83,12,78.29-.96,9.63-5.63,47.4-33.14,82.29-11.45,14.52-35.02,38.89-103.43,61.14-18.93,6.16-73.5,22.63-177.67,24.57-128.65,2.4-195.03-19.94-214.33-26.86Z"/>
    </g>
  </g>
  <g id="_입안" data-name="입안" class="st13">
    <path class="st9" d="M498.66,540.24c-11.06,18.81-14.92,35.67-16.47,45.97-2.36,15.69-5.9,39.66,8.13,61.21,2.96,4.54,10.81,15.26,25.14,22.1,4.13,1.97,24.11,10.91,46.48,2.54,14.25-5.34,22.54-15.1,25.4-18.79,18.18-23.51,12.43-54.6,9.23-71.87-1.82-9.84-5.7-24.7-14.86-41.52"/>
    <g id="_레이어_26" data-name="레이어_26" class="st13">
      <path class="st3" d="M485.57,548.05c-3.23,3.25-36.78,37.82-27.62,69.48,1.31,4.52,4.45,14.97,13.71,20.56,8.24,4.97,17.99,3.83,27.94,2.67,7.5-.87,10.12-2.38,21.08-3.47,5.26-.52,11.82-.9,12.89-.96,0,0,3.66-.21,8.77-.32,1.1-.02,2.48-.05,4.28,0,.63.02,2.05.07,3.89.21,3.52.26,6.38.69,8.81,1.06,15.54,2.38,16.29,2.91,21.08,3.47,9.95,1.16,19.7,2.3,27.94-2.67,9.07-5.47,12.31-15.71,13.71-20.56,9.18-31.61-23.82-66.1-27.14-69.48"/>
    </g>
    <g id="_레이어_19" data-name="레이어_19" class="st13">
      <g>
        <path class="st3" d="M504.05,551.67c-2.32,5.37-6.57,17.45-3.3,31.75,1.04,4.56,2.9,12.7,9.9,19.56,9.45,9.26,21.68,9.72,26.67,9.9,3.59.14,19.21.72,30.73-9.65,12.76-11.49,16.15-32.54,7.87-52.06"/>
        <path class="st3" d="M539.35,554.46c-.98,3.93-1.86,8.92-2.03,14.73-.2,6.7.59,12.42,1.52,16.76"/>
      </g>
    </g>
  </g>
  <g id="_입" data-name="입" class="st13">
    <g class="st13">
      <path class="st11" d="M541,532.05c-23.81-.32-47.62-.63-71.43-.95,1.21,3.51,7.04,19.43,21.33,27.22,2.05,1.12,9.61,4.97,19.35,3.74,5.13-.65,8.78-2.44,10.37-3.23,13.92-7,19.15-22.7,20.38-26.77Z"/>
      <path class="st3" d="M471.67,537.95c.64,5.28,2.68,14.56,10.1,21.52,14.68,13.8,42.98,11.61,53.4-3.24,3.75-5.35,4.59-11.49,4.51-16.38"/>
    </g>
    <g id="_레이어_22" data-name="레이어_22" class="st13">
      <path class="st3" d="M423.16,533.63c3.5,6.23,11.24,17.89,25.65,26.41,19.86,11.75,39.53,9.59,48.25,8.65,7.2-.77,16.95-1.93,27.37-8.46,7.72-4.84,12.69-10.67,15.57-14.67"/>
    </g>
    <g id="_레이어_23" data-name="레이어_23">
      <path class="st3" d="M536.17,550.16c-8.62,3.83-18.02,7.62-28.18,11.17-13.73,4.8-26.7,8.42-38.6,11.17"/>
    </g>
    <path class="st4" d="M538.15,510.33c-3.42-2.57-16.47-11.74-33.71-9.52-4.34.56-14.93,1.92-23.05,10.86-7.38,8.12-10.6,20.11-7.43,31.43,3.82,13.64,15.11,19.71,17.14,20.76,13.88,7.15,27.52,1.61,31.05.19,8.54-3.45,13.91-8.99,16.57-12.19"/>
  </g>
  <g id="_코" data-name="코" class="st13">
    <ellipse class="st10" cx="540" cy="509.38" rx="12" ry="6.86"/>
    <path class="st0" d="M540.19,502.67c-2.17-1.49-3.09-1.69-3.43-1.39-.85.75.89,5.65,3.33,5.62,1.63-.02,2.73-2.22,2.81-2.38.54-1.12.86-2.94.14-3.36-.58-.34-1.79.28-2.86,1.51Z"/>
    <path class="st6" d="M556.13,506.23c-3.38-7.85-28.85-7.69-32.27.57-2.34,5.66,4.38,18.29,15.38,18.79,11.95.55,19.36-13.65,16.89-19.36Z"/>
  </g>
  <g id="_눈썹" data-name="눈썹" class="st13">
    <path class="st9" d="M399.67,347.48c19.43,8.13,38.86,16.25,58.29,24.38"/>
    <path class="st1" d="M460.24,341.76c-6.03,4.67-13.38,9.65-22.1,14.29-14.41,7.66-27.87,11.87-38.48,14.29"/>
    <path class="st12" d="M464.37,342.89c3.65,5.47,4.04,13.02,1.41,18.85-8.86,19.67-53.57,23.08-64.81,5.82-3.67-5.63-3.62-13.22-1.01-18.85,9.1-19.66,52.91-23.07,64.41-5.82Z"/>
  </g>
</svg>